<svg xmlns="http://www.w3.org/2000/svg" viewBox="0 0 500 500"><g id="freepik--background-complete--inject-41"><path d="M82.59,325.25c-7.69.14-18.89.45-26.48.44h-.44v-.45l-.06-11.19v-.5h.5c7.93,0,19,.07,26.76.23,0,3.39-.22,8-.28,11.46Zm0,0c-.1-3.28-.2-8-.27-11.19l.27.27c-7.65.14-18.71.21-26.48.23l.5-.5,0,11.19-.45-.45c7.49,0,18.89.29,26.48.45Z" style="fill:#ebebeb"></path><path d="M67.82,339.36c-7.69.14-18.89.45-26.48.44H40.9v-.45l-.06-11.19v-.5h.5c7.93,0,18.94.07,26.76.23,0,3.39-.22,8-.28,11.46Zm0,0c-.1-3.28-.2-8-.27-11.19l.27.27c-7.66.14-18.71.21-26.48.23l.5-.5-.05,11.19-.45-.45c7.49,0,18.89.29,26.48.45Z" style="fill:#ebebeb"></path><path d="M258.11,365.11c-7.69.15-18.89.45-26.48.45h-.44v-.45l-.05-11.19v-.5h.5c7.93,0,18.94.08,26.76.23,0,3.39-.22,8-.28,11.46Zm0,0c-.1-3.27-.2-8-.27-11.19l.27.27c-7.66.14-18.71.21-26.48.23l.5-.5,0,11.19-.45-.45c7.49,0,18.89.29,26.48.45Z" style="fill:#ebebeb"></path><path d="M243.34,379.22c-7.69.14-18.89.45-26.48.45h-.44v-.45l0-11.19v-.5h.5c7.93,0,18.94.08,26.76.23,0,3.39-.22,8-.28,11.46Zm0,0c-.1-3.27-.2-8-.27-11.19l.27.27c-7.66.14-18.71.21-26.48.23l.5-.5-.06,11.19-.44-.45c7.49,0,18.89.29,26.48.45Z" style="fill:#ebebeb"></path><path d="M228.63,365.11c-7.69.15-18.89.45-26.48.45h-.45v-.45l0-11.19v-.5h.51c7.92,0,18.94.08,26.75.23,0,3.39-.21,8-.27,11.46Zm0,0c-.1-3.27-.21-8-.28-11.19l.28.27c-7.66.14-18.71.21-26.48.23l.49-.5,0,11.19-.44-.45c7.48,0,18.89.29,26.48.45Z" style="fill:#ebebeb"></path><path d="M458.66,339.36c-7.69.14-18.89.45-26.48.44h-.45v-.45l-.05-11.19v-.5h.5c7.92,0,18.94.07,26.75.23,0,3.39-.21,8-.27,11.46Zm0,0c-.1-3.28-.2-8-.27-11.19l.27.27c-7.66.14-18.71.21-26.48.23l.5-.5-.06,11.19-.44-.45c7.48,0,18.89.29,26.48.45Z" style="fill:#ebebeb"></path><path d="M443.89,56.92c-7.69.14-18.89.44-26.48.44H417v-.44l0-11.19v-.51h.51c7.92,0,18.94.07,26.75.23,0,3.39-.21,8-.27,11.46Zm0,0c-.1-3.28-.21-8-.28-11.19l.28.27c-7.66.14-18.71.2-26.48.23l.5-.5-.06,11.19-.44-.45c7.48,0,18.89.29,26.48.45Z" style="fill:#ebebeb"></path><path d="M458.66,71c-7.69.14-18.89.44-26.48.44h-.45V71l-.05-11.19v-.51h.5c7.92,0,18.94.07,26.75.23,0,3.39-.21,8-.27,11.46Zm0,0c-.1-3.28-.2-8-.27-11.19l.27.27c-7.66.14-18.71.2-26.48.22l.5-.49L432.62,71l-.44-.45c7.48,0,18.89.29,26.48.45Z" style="fill:#ebebeb"></path><path d="M67.82,56.92c-7.69.14-18.89.44-26.48.44H40.9v-.44l-.06-11.19v-.51h.5c7.93,0,18.94.07,26.76.23,0,3.39-.22,8-.28,11.46Zm0,0c-.1-3.28-.2-8-.27-11.19l.27.27c-7.66.14-18.71.2-26.48.23l.5-.5-.05,11.19-.45-.45c7.49,0,18.89.29,26.48.45Z" style="fill:#ebebeb"></path><rect x="432.8" width="1" height="87.64" style="fill:#c7c7c7"></rect><polygon points="402.87 116.98 405.32 122.36 461.3 122.36 463.74 116.98 439.91 100.48 426.7 100.48 402.87 116.98" style="fill:#ebebeb"></polygon><polygon points="425.05 84.59 426.7 100.48 439.91 100.48 441.56 84.59 425.05 84.59" style="fill:#dbdbdb"></polygon><polygon points="402.88 116.98 405.32 122.36 461.3 122.36 463.74 116.98 402.88 116.98" style="fill:#dbdbdb"></polygon><rect x="367.46" width="1" height="70.28" style="fill:#c7c7c7"></rect><polygon points="337.53 99.62 339.98 105 395.95 105 398.39 99.62 374.56 83.12 361.36 83.12 337.53 99.62" style="fill:#ebebeb"></polygon><polygon points="359.71 67.23 361.36 83.12 374.56 83.12 376.22 67.23 359.71 67.23" style="fill:#dbdbdb"></polygon><polygon points="337.53 99.62 339.98 105 395.96 105 398.4 99.62 337.53 99.62" style="fill:#dbdbdb"></polygon><path d="M115.83,41.17c-42,0-42.06,59.71,0,59.71S157.9,41.17,115.83,41.17Z" style="fill:#ebebeb"></path><path d="M141.37,76.62c-2.24,10.28-10.76,19.19-25.54,19.19-34.91,0-34.85-49.57,0-49.57.23,0,.45,0,.68,0-32.8.6-32.64,47.54.65,47.54C130.73,93.8,138.82,85.94,141.37,76.62Z" style="fill:#dbdbdb"></path><path d="M116.08,52.78a1.06,1.06,0,0,1,1.09,1v1.66a15.65,15.65,0,0,1,8.09,2.91c.41.29.64.54.64,1a1.12,1.12,0,0,1-1.18,1,1.16,1.16,0,0,1-.82-.29,13.62,13.62,0,0,0-6.82-2.7V69c6.91,1.33,9.82,3.7,9.82,7.77,0,4.41-4.05,7.53-9.73,7.7V87.7a1.09,1.09,0,0,1-2.18,0V84.41a17.88,17.88,0,0,1-10.22-4,1.06,1.06,0,0,1-.5-.87,1.14,1.14,0,0,1,1.14-1,1.19,1.19,0,0,1,.81.29,15.31,15.31,0,0,0,8.86,3.78V70.7c-6.81-1.38-9.63-3.66-9.63-7.82s4-7.4,9.54-7.52V53.78A1.06,1.06,0,0,1,116.08,52.78Zm-1,15.8V57.23c-4.4.08-7.31,2.49-7.31,5.48C107.77,65.54,109.22,67.29,115.08,68.58Zm2,2.53V82.59c4.55-.09,7.5-2.5,7.5-5.66C124.58,74.06,123,72.32,117.08,71.11Z" style="fill:#dbdbdb"></path><path d="M79.19,242C28.62,251.1,42,326,92.63,316.93S129.85,232.94,79.19,242Z" style="fill:#dbdbdb"></path><path d="M83.94,241.18c-48.2,8.65-34.84,83.57,13.44,74.9S132.22,232.51,83.94,241.18Z" style="fill:#ebebeb"></path><path d="M121.23,280.39c-.26,13.35-8,26.28-25,29.33-40.06,7.19-51.15-55-11.15-62.17.26-.05.52-.1.79-.13-37.51,7.51-26.76,66.35,11.44,59.5C112.89,304.12,120.4,292.6,121.23,280.39Z" style="fill:#dbdbdb"></path><path d="M86.84,255.69a1.29,1.29,0,0,1,1.48,1l.37,2.08a17.3,17.3,0,0,1,9.94,2c.53.28.85.54.94,1.07a1.35,1.35,0,0,1-1.12,1.54,1.29,1.29,0,0,1-1-.19,15.09,15.09,0,0,0-8.43-2l2.62,14.6c8.22.25,12.09,2.62,13,7.73,1,5.53-3,10.27-9.43,11.65l.73,4.07a1.27,1.27,0,0,1-2.5.45l-.74-4.12a19.9,19.9,0,0,1-12.64-3,1.36,1.36,0,0,1-.77-1,1.39,1.39,0,0,1,1.07-1.54,1.33,1.33,0,0,1,1,.2,17.13,17.13,0,0,0,11,2.92l-2.66-14.86c-8.13-.32-11.88-2.61-12.82-7.82s2.93-10.1,9.26-11.4l-.36-2A1.29,1.29,0,0,1,86.84,255.69Zm2.41,20L86.7,261.48c-5,1-7.84,4.63-7.16,8.38C80.17,273.41,82.23,275.3,89.25,275.71Zm2.86,2.77,2.59,14.39c5.19-1,8-4.67,7.33-8.63C101.38,280.64,99.16,278.78,92.11,278.48Z" style="fill:#dbdbdb"></path><path d="M416.57,205.13c-37.82,6.79-27.83,62.81,10.05,56S454.44,198.34,416.57,205.13Z" style="fill:#dbdbdb"></path><path d="M420.12,204.5c-36,6.46-26.05,62.48,10.05,56S456.21,198,420.12,204.5Z" style="fill:#ebebeb"></path><path d="M448,233.82c-.2,10-6,19.65-18.69,21.92-30,5.38-38.25-41.11-8.34-46.48a5.58,5.58,0,0,1,.59-.09c-28.05,5.61-20,49.61,8.55,44.48C441.76,251.56,447.38,243,448,233.82Z" style="fill:#dbdbdb"></path><path d="M427.31,215.32a1,1,0,0,1,.83,1.06L428,218a13,13,0,0,1,6.68,3.58,1.1,1.1,0,0,1,.44,1,1,1,0,0,1-1.14.86.92.92,0,0,1-.67-.36,11.4,11.4,0,0,0-5.6-3.25l-1.3,11c5.83,2,8.09,4.5,7.63,8.35-.49,4.17-4.34,6.71-9.27,6.29l-.36,3.07a1,1,0,0,1-1.06.83,1,1,0,0,1-.83-1.05l.36-3.11a14.86,14.86,0,0,1-8.4-4.86,1,1,0,0,1-.33-.87,1,1,0,0,1,1.09-.87,1,1,0,0,1,.68.36,12.84,12.84,0,0,0,7.25,4.48l1.32-11.21c-5.75-2-7.93-4.44-7.47-8.38s4.28-6.59,9.1-6.15l.17-1.49A1,1,0,0,1,427.31,215.32Zm-2.62,14.85L426,219.43c-3.83-.37-6.61,1.62-6.95,4.45S419.75,228.36,424.69,230.17Zm1.44,2.61-1.27,10.85c3.94.39,6.77-1.59,7.12-4.58C432.3,236.33,431.11,234.52,426.13,232.78Z" style="fill:#dbdbdb"></path></g><g id="freepik--Shadow--inject-41"><ellipse cx="249.79" cy="437.92" rx="198.33" ry="22.14" style="fill:#ebebeb"></ellipse></g><g id="freepik--Plant--inject-41"><path d="M408.18,276.61a42.91,42.91,0,0,1-.84,16.51,45.78,45.78,0,0,1-2.53,7.31c-1.31,3-2.69,6-2.35,9.27.31.22-.78.18-.82-.14-8.83-5-20.16-5.95-27-14.18-3.23-3.89-4.85-8.83-5.62-13.77-.84-5.37-1.07-11.33.32-16.63,1.17-4.48,3.79-8.8,8-11s10-2.07,14.62-.65C401.87,256.4,406.78,267.05,408.18,276.61Z" style="fill:#6366F1"></path><path d="M412.71,342q-1.8-6-3.64-12c-2.43-7.85-4.95-15.68-7.74-23.41q-2.5-6.94-5.29-13.76a82.29,82.29,0,0,1,1.06-8.54c.74-3.43,1.81-6.74,2.81-10.09.06-.21-.27-.32-.36-.12-2,4.62-4.57,10.53-4.64,16q-3.23-7.71-6.94-15.2a64.66,64.66,0,0,1,.39-12.66c0-.2-.27-.25-.3-.06a45.29,45.29,0,0,0-.87,11.17q-2.83-5.62-6-11.1c-.2-.33-.65,0-.48.33,3.32,6.4,6.4,12.93,9.29,19.54a42.43,42.43,0,0,0-13.86-8c-.22-.08-.38.24-.16.33a50.51,50.51,0,0,1,15,9.92q3.1,7.27,5.94,14.65c-5.53-5.42-13.1-9-20.42-10.9-.25-.06-.31.32-.07.39,8.47,2.55,15.05,7.35,21.49,13.12q1.13,3,2.2,6,4.1,11.35,7.8,22.85,1.78,5.5,3.5,11c1.24,4,2.21,8.15,3.81,12,.16.36.82.28.73-.16A111,111,0,0,0,412.71,342Z" style="fill:#263238"></path><path d="M398.06,268.87a22,22,0,0,0-3.19,7.93c0,.08.1.12.13.05a68.54,68.54,0,0,1,3.45-7.79C398.58,268.8,398.21,268.64,398.06,268.87Z" style="fill:#263238"></path><path d="M382.29,287.28a23.18,23.18,0,0,0-7.93-2.67c-.07,0-.11.1,0,.13,1.28.53,2.62.9,3.91,1.39s2.56,1.11,3.86,1.56A.23.23,0,0,0,382.29,287.28Z" style="fill:#263238"></path><path d="M377.85,265.13a15.61,15.61,0,0,0-2.55-1.57.13.13,0,0,0-.14.22,15,15,0,0,0,2.51,1.63C377.83,265.51,378,265.24,377.85,265.13Z" style="fill:#263238"></path><path d="M438,306.62c-6.37,1.89-12.76,3.63-19.13,5.5-.55.17-11.31-20.45-7.42-31.07,3.59-9.83,11.82-17.19,21.63-20.53,4.55-1.54,10.13-2.84,14.93-1.78,4.27.95,7.29,4.44,8.67,8.46,1.89,5.45,1.26,12,.24,17.53A30.7,30.7,0,0,1,450.62,299C447.24,303.06,442.93,305.15,438,306.62Z" style="fill:#6366F1"></path><path d="M447.19,287a85.21,85.21,0,0,1-12.47,4.91,52.22,52.22,0,0,0-8.33,3c2.68-6,5.63-11.86,8.76-17.67,4.11-1.19,8.44-3,11.54-5.95a.18.18,0,0,0-.23-.27c-3.39,2.39-7.13,3.83-10.88,5.45.84-1.56,1.69-3.12,2.57-4.68.24-.44-.36-.87-.65-.44a132.65,132.65,0,0,0-9,15.18,69.48,69.48,0,0,1-.66-13.91.09.09,0,0,0-.18,0,46.43,46.43,0,0,0,.15,15.29c-2.23,4.46-4.26,9-6.09,13.64-.72-2.77-1.67-5.51-2.3-8.31a38.24,38.24,0,0,1-.91-12.25c0-.12-.17-.12-.19,0A43.24,43.24,0,0,0,421,303.49c-1.07,2.78-2.08,5.57-3,8.37A167.06,167.06,0,0,0,409.5,356a.27.27,0,0,0,.54,0,219.07,219.07,0,0,1,9.48-43.64c1.85-5.55,4-10.94,6.3-16.22,3.76-1.11,7.51-2.62,11.2-3.9a35.28,35.28,0,0,0,10.32-5.06C447.46,287.15,447.33,287,447.19,287Z" style="fill:#263238"></path><path d="M453.13,281c-3.89,1.38-7.58,3.32-11.47,4.72-.18.07-.08.36.11.32,4.11-.85,8.19-2.12,11.51-4.82C453.4,281.16,453.26,281,453.13,281Z" style="fill:#263238"></path><path d="M421.35,272.64c0-.21-.26-.33-.32-.11-1.07,3.58-1.8,7.39-.77,11.06,0,.14.27.15.28,0C420.73,279.88,420.52,276.28,421.35,272.64Z" style="fill:#263238"></path><path d="M437.43,264.35a9.57,9.57,0,0,0-1.69,6.1c0,.14.23.22.26.06.48-2.06,1.27-3.93,1.9-5.92A.27.27,0,0,0,437.43,264.35Z" style="fill:#263238"></path><path d="M362.27,315.71c1.86,5.92,6.3,14.11,13.32,14.17,4.55.05,9.13-.49,13.7-.56,4.88-.07,9.78-.06,14.65.23.4,0-.58-14.63-12.33-21.77-3.28-2-7.31-2.63-11-3.44A51.66,51.66,0,0,0,367.52,303c-2.7.11-4.94.68-5.9,3.44S361.37,312.9,362.27,315.71Z" style="fill:#6366F1"></path><path d="M367.32,308.3c2.85.73,5.73,1.58,8.6,2.49a30.37,30.37,0,0,0-2.37-2.31c-1.23-1-2.58-1.84-3.9-2.74-.11-.07,0-.28.09-.23a16.09,16.09,0,0,1,6.93,5.51c3.57,1.15,7.1,2.43,10.51,3.82a40.05,40.05,0,0,1,6.72,3.54,27.74,27.74,0,0,0-2.43-4.23c-1.56-2-3.67-3.15-5.71-4.58a.18.18,0,0,1,.18-.31,16.71,16.71,0,0,1,9.16,9.93,38.66,38.66,0,0,1,6.66,6.05c7.77,8.82,13.89,20.56,13.91,32.54,0,.29-.46.37-.51.07A66.34,66.34,0,0,0,400.34,326c-.55-.65-1.12-1.27-1.7-1.87a53,53,0,0,0-6.42-.47c-2.5,0-5,.36-7.47.57-4.1.33-8.63.38-12.33-1.69-.16-.09-.05-.37.13-.3,8.24,3,16.89-.81,25.15,1a38.64,38.64,0,0,0-12.19-7.86l-.75-.3c-5.29.63-10.88,2-16,.29a.13.13,0,0,1,.07-.24c5,1.24,9.75-.32,14.66-.57-5.35-2.08-10.8-3.74-16.17-5.81C366.84,308.59,366.83,308.18,367.32,308.3Z" style="fill:#263238"></path><path d="M365,313.51a70.86,70.86,0,0,0,7.7.58c.05,0,.07.1,0,.11a15.89,15.89,0,0,1-7.77-.5C364.8,313.67,364.86,313.49,365,313.51Z" style="fill:#263238"></path><path d="M382.38,308.43a12.8,12.8,0,0,1,3.81,2.65c.13.12-.05.36-.2.25-.64-.47-1.31-.91-2-1.35a18.61,18.61,0,0,1-1.85-1.17C382,308.67,382.17,308.36,382.38,308.43Z" style="fill:#263238"></path><path d="M423.84,327.5c-.09.19.19.37.3.17h0a.29.29,0,0,0,.18.12,119,119,0,0,0,14.35,2.5c3.88.34,8.36.56,11.75-1.7,4.61-3.05,7.64-11.21,5.15-16.4-2.95-6.16-11.82-2.81-16.28-.62A32.64,32.64,0,0,0,423.84,327.5Z" style="fill:#6366F1"></path><path d="M420.39,330.34a46.64,46.64,0,0,1,8.57-6.52,29.34,29.34,0,0,1,8.69-8.85c.16-.12.31.15.15.27a39.23,39.23,0,0,0-7.32,7.7,80.82,80.82,0,0,1,10.75-4.89,14.27,14.27,0,0,1,5.77-5.78c.05,0,.11,0,.06.08a23.7,23.7,0,0,0-5.21,5.47c2.18-.82,4.39-1.58,6.59-2.31.2-.06.28.24.09.31-3.93,1.53-7.94,3.15-11.82,5a45.2,45.2,0,0,0,14.31,0c.13,0,.19.17.06.21a28.19,28.19,0,0,1-15.19.22,71.51,71.51,0,0,0-7.21,4,18.07,18.07,0,0,1,5.83.48,45.15,45.15,0,0,0,10.23,1.16.12.12,0,0,1,0,.23c-5.94,1-11.55-1.68-17.43-1a45.28,45.28,0,0,0-6.13,5,46,46,0,0,0-8.94,12.61c-2.48,5-3.82,10.38-5.82,15.59a.19.19,0,0,1-.37-.1C407.8,349,412.91,337.66,420.39,330.34Z" style="fill:#263238"></path><path d="M438.3,316.26a6.74,6.74,0,0,1,1.52-1.85,6.22,6.22,0,0,1,1.75-1.31c.06,0,.09.06.06.1-.49.55-1.16,1-1.69,1.49s-1,1.15-1.5,1.68A.09.09,0,0,1,438.3,316.26Z" style="fill:#263238"></path><path d="M448.09,319.45c.88-.22,1.81-.21,2.71-.39a26.34,26.34,0,0,0,2.62-.79.11.11,0,0,1,.08.2,8.75,8.75,0,0,1-5.41,1.25C448,319.7,448,319.48,448.09,319.45Z" style="fill:#263238"></path><polygon points="395.93 346.6 396.71 355.45 399.36 385.33 422.76 385.33 426.06 355.45 427.04 346.6 395.93 346.6" style="fill:#455a64"></polygon><polygon points="395.93 346.6 396.71 355.45 426.06 355.45 427.04 346.6 395.93 346.6" style="fill:#263238"></polygon><rect x="393.62" y="344.19" width="35.74" height="7.18" transform="translate(822.97 695.56) rotate(180)" style="fill:#455a64"></rect></g><g id="freepik--Floor--inject-41"><path d="M40,385.21c134.56-.61,285.5-.62,420.06,0-134.56.61-285.5.61-420.06,0Z" style="fill:#263238"></path></g><g id="freepik--Device--inject-41"><path d="M267,75.12H105.39A16.5,16.5,0,0,0,89,91.78V424.54a16.51,16.51,0,0,0,16.35,16.65H267a16.52,16.52,0,0,0,16.37-16.65V91.78A16.52,16.52,0,0,0,267,75.12Zm6.14,339.13c0,8.76-6.56,15.84-14.65,15.84H113.92c-8.11,0-14.67-7.08-14.67-15.84V104.39c0-17.84,6.56-18.71,14.67-18.71h29c1.68,0,3.06,1.91,3.06,4.28v1c0,5.56,3,5.58,6.77,5.58h67c3.77,0,6.79,0,6.79-5.58V90c0-2.37,1.36-4.28,3.07-4.28h29c8.09,0,14.65,2.37,14.65,18.71Z" style="fill:#263238"></path><path d="M273.18,104.39V414.25c0,8.76-6.56,15.84-14.65,15.84H113.92c-8.11,0-14.67-7.08-14.67-15.84V104.39c0-17.84,6.56-18.71,14.67-18.71h29c1.68,0,3.06,1.91,3.06,4.28v1c0,5.56,3,5.58,6.77,5.58h67c3.77,0,6.79,0,6.79-5.58V90c0-2.37,1.36-4.28,3.07-4.28h29C266.62,85.68,273.18,88.05,273.18,104.39Z" style="fill:#fff"></path><path d="M273.18,104.39v34.9H99.25v-34.9c0-17.84,6.56-18.71,14.67-18.71h29c1.68,0,3.06,1.91,3.06,4.28v1c0,5.56,3,5.58,6.77,5.58h67c3.77,0,6.79,0,6.79-5.58V90c0-2.37,1.36-4.28,3.07-4.28h29C266.62,85.68,273.18,88.05,273.18,104.39Z" style="fill:#6366F1"></path><g id="freepik--u5Zjqx--inject-41"><path d="M137.89,92.64a3.7,3.7,0,0,0-.28.28l-.16.15a3.79,3.79,0,0,0-2.7-1.11,3.75,3.75,0,0,0-2.7,1.12l-.15-.16-.27-.28h0l0,0,.35-.31a3.92,3.92,0,0,1,.82-.52,4.18,4.18,0,0,1,1.08-.37l.55-.07h.47l.37,0a4.41,4.41,0,0,1,1,.24,5.79,5.79,0,0,1,.67.31,4.89,4.89,0,0,1,.64.45l.3.27Z" style="fill:#fff"></path><path d="M132.94,94l-.44-.43a3.12,3.12,0,0,1,1.8-.91,3.15,3.15,0,0,1,2.7.9l-.44.44a2.56,2.56,0,0,0-3.62,0Z" style="fill:#fff"></path><path d="M136.12,94.4l-.44.44a1.3,1.3,0,0,0-1.86,0c-.14-.15-.29-.3-.44-.44A1.93,1.93,0,0,1,136.12,94.4Z" style="fill:#fff"></path><path d="M135.15,95.24a.4.4,0,1,1-.4-.4A.4.4,0,0,1,135.15,95.24Z" style="fill:#fff"></path></g><path d="M110.59,93.48a1.16,1.16,0,1,1,1.16,1.16A1.16,1.16,0,0,1,110.59,93.48Z" style="fill:#fff"></path><path d="M114.23,93.48a1.15,1.15,0,1,1,1.15,1.16A1.15,1.15,0,0,1,114.23,93.48Z" style="fill:#fff"></path><path d="M117.86,93.48A1.15,1.15,0,1,1,119,94.64,1.15,1.15,0,0,1,117.86,93.48Z" style="fill:#fff"></path><path d="M121.49,93.48a1.15,1.15,0,1,1,1.15,1.16A1.15,1.15,0,0,1,121.49,93.48Z" style="fill:#fff"></path><path d="M125.12,93.48a1.15,1.15,0,1,1,1.15,1.16A1.15,1.15,0,0,1,125.12,93.48Z" style="fill:#fff"></path><path d="M260.13,96h-9.38V91.65h9.38Zm-8.9-.48h8.43V92.13h-8.43Z" style="fill:#fff"></path><rect x="251.53" y="92.39" width="6.05" height="2.87" style="fill:#fff"></rect><rect x="260.14" y="92.66" width="0.83" height="2.33" style="fill:#fff"></rect><polygon points="115.11 129.49 109.97 124.67 115.11 119.86 115.9 120.71 111.67 124.67 115.9 128.64 115.11 129.49" style="fill:#fff"></polygon><polygon points="257.34 119.86 262.48 124.67 257.34 129.49 256.54 128.64 260.77 124.67 256.54 120.71 257.34 119.86" style="fill:#fff"></polygon><path d="M162.84,124.67a2.93,2.93,0,0,1,4.72-2.23.47.47,0,0,1,.08.63.46.46,0,0,1-.63.09,2,2,0,0,0-1.27-.43,2.11,2.11,0,0,0-1.43.57,1.94,1.94,0,0,0,0,2.75,2.16,2.16,0,0,0,1.43.57,2,2,0,0,0,1.27-.44.48.48,0,0,1,.63.09.47.47,0,0,1-.08.63,2.92,2.92,0,0,1-1.82.62A2.89,2.89,0,0,1,162.84,124.67Z" style="fill:#fff"></path><path d="M169.18,127.08v-4.66a.43.43,0,0,1,.43-.44.44.44,0,0,1,.45.44v1.9h2v-1.9a.43.43,0,0,1,.44-.44.44.44,0,0,1,.44.44v4.66a.44.44,0,0,1-.44.44.43.43,0,0,1-.44-.44v-1.9h-2v1.9a.44.44,0,0,1-.45.44A.43.43,0,0,1,169.18,127.08Z" style="fill:#fff"></path><path d="M174.79,127.08v-4.66a.42.42,0,0,1,.43-.44h2.58a.44.44,0,0,1,.44.44.45.45,0,0,1-.44.44h-2.14v1.45h1.84a.44.44,0,0,1,.44.43.44.44,0,0,1-.44.44h-1.84v1.46h2.14a.44.44,0,0,1,0,.88h-2.58A.43.43,0,0,1,174.79,127.08Z" style="fill:#fff"></path><path d="M179.23,124.67a2.9,2.9,0,0,1,2.9-2.84,2.94,2.94,0,0,1,1.83.61.46.46,0,0,1-.56.72,2,2,0,0,0-1.27-.43,2.08,2.08,0,0,0-1.42.57,1.92,1.92,0,0,0,0,2.75,2.13,2.13,0,0,0,1.42.57,1.94,1.94,0,0,0,1.27-.44.49.49,0,0,1,.64.09.47.47,0,0,1-.08.63,3,3,0,0,1-1.83.62A2.9,2.9,0,0,1,179.23,124.67Z" style="fill:#fff"></path><path d="M185.57,127.08v-4.62a.44.44,0,1,1,.87,0v2.27l2.56-2.57a.42.42,0,0,1,.62,0,.45.45,0,0,1,0,.61l-1.74,1.73,1.75,2.31a.44.44,0,0,1-.34.71.45.45,0,0,1-.32-.16l-1.71-2.24-.82.84v1.12a.44.44,0,1,1-.87,0Z" style="fill:#fff"></path><path d="M195.19,122.67a2.9,2.9,0,0,1,0,4,2.59,2.59,0,0,1-1.89.85,2.68,2.68,0,0,1-1.93-.85,3,3,0,0,1,0-4,2.64,2.64,0,0,1,1.93-.84A2.55,2.55,0,0,1,195.19,122.67Zm-.1,2a2,2,0,0,0-.54-1.38,1.68,1.68,0,0,0-1.25-.56,1.73,1.73,0,0,0-1.28.56,2.06,2.06,0,0,0,0,2.76,1.77,1.77,0,0,0,1.28.57,1.72,1.72,0,0,0,1.25-.57A2,2,0,0,0,195.09,124.67Z" style="fill:#fff"></path><path d="M199.49,127.52a2.29,2.29,0,0,1-2.29-2.29v-2.81a.43.43,0,0,1,.44-.44.44.44,0,0,1,.44.44v2.81a1.41,1.41,0,1,0,2.82,0v-2.81a.44.44,0,1,1,.87,0v2.81A2.29,2.29,0,0,1,199.49,127.52Z" style="fill:#fff"></path><path d="M206.78,122.86h-1.26v4.22a.43.43,0,0,1-.43.44.44.44,0,0,1-.44-.44v-4.22H203.4a.44.44,0,0,1-.43-.44.43.43,0,0,1,.43-.44h3.38a.43.43,0,0,1,.43.44A.44.44,0,0,1,206.78,122.86Z" style="fill:#fff"></path><path d="M195.36,89.62H177.08A1.13,1.13,0,0,1,176,88.49h0a1.14,1.14,0,0,1,1.13-1.13h18.28a1.13,1.13,0,0,1,1.12,1.13h0A1.12,1.12,0,0,1,195.36,89.62Z" style="fill:#fff"></path><path d="M179.23,333.12h-1.06v3.57a.36.36,0,0,1-.37.37.37.37,0,0,1-.37-.37v-3.57h-1.05a.38.38,0,0,1-.37-.38.36.36,0,0,1,.37-.37h2.85a.36.36,0,0,1,.37.37A.38.38,0,0,1,179.23,333.12Z" style="fill:#263238"></path><path d="M184,333a2.44,2.44,0,0,1,0,3.38,2.16,2.16,0,0,1-1.6.72,2.25,2.25,0,0,1-1.64-.72,2.49,2.49,0,0,1,0-3.38,2.21,2.21,0,0,1,1.64-.72A2.13,2.13,0,0,1,184,333Zm-.08,1.69a1.71,1.71,0,0,0-.46-1.17,1.43,1.43,0,0,0-2.14,0,1.71,1.71,0,0,0-.46,1.17,1.69,1.69,0,0,0,.46,1.17,1.43,1.43,0,0,0,2.14,0A1.69,1.69,0,0,0,184,334.65Z" style="fill:#263238"></path><path d="M188.52,333.12h-1.06v3.57a.36.36,0,0,1-.37.37.37.37,0,0,1-.37-.37v-3.57h-1.06a.38.38,0,0,1-.36-.38.36.36,0,0,1,.36-.37h2.86a.36.36,0,0,1,.37.37A.38.38,0,0,1,188.52,333.12Z" style="fill:#263238"></path><path d="M191.75,336h-1.63l-.32.87a.4.4,0,0,1-.35.23l-.13,0a.38.38,0,0,1-.22-.48l1.48-3.95a.38.38,0,0,1,.35-.23.37.37,0,0,1,.36.23l1.48,3.95a.38.38,0,0,1-.22.48l-.13,0a.36.36,0,0,1-.34-.23Zm-.27-.74-.55-1.44-.54,1.44Z" style="fill:#263238"></path><path d="M193.68,336.69v-3.95a.37.37,0,0,1,.37-.37.38.38,0,0,1,.38.37v3.58h1.81a.37.37,0,1,1,0,.74h-2.19A.37.37,0,0,1,193.68,336.69Z" style="fill:#263238"></path><path d="M164.49,342.08a.61.61,0,0,1,.62.61V343a5.18,5.18,0,0,1,2.22.79.76.76,0,0,1,.43.69.79.79,0,0,1-.8.78.88.88,0,0,1-.43-.12,5.11,5.11,0,0,0-1.48-.64v2.76c2.18.54,3.11,1.42,3.11,3s-1.23,2.63-3,2.8v.86a.62.62,0,0,1-.62.62.63.63,0,0,1-.63-.62V353a6.13,6.13,0,0,1-2.94-1.12.79.79,0,0,1-.39-.69.79.79,0,0,1,.79-.79.81.81,0,0,1,.48.16,5,5,0,0,0,2.12,1v-2.82c-2.1-.55-3.07-1.34-3.07-3s1.22-2.59,3-2.74v-.3A.62.62,0,0,1,164.49,342.08Zm-.57,4.89v-2.54c-.92.08-1.38.57-1.38,1.2S162.81,346.61,163.92,347Zm1.13,2v2.61c.92-.1,1.42-.56,1.42-1.25S166.16,349.3,165.05,349Z" style="fill:#263238"></path><path d="M172.64,343.77v8.46a.79.79,0,0,1-.8.79.77.77,0,0,1-.79-.79v-7.06l-.58.33a.69.69,0,0,1-.4.12.8.8,0,0,1-.41-1.48l1.76-1s0,0,.06,0,0,0,.07-.05h.08a.08.08,0,0,1,.06,0H172s.05,0,.08,0,0,0,.06,0a.14.14,0,0,0,.09,0,.1.1,0,0,0,0,0s.05,0,.06.05,0,0,.06.05,0,0,0,.06l.06.06v0s0,0,0,0,0,0,0,.07,0,.06,0,.07,0,.06,0,.08a.12.12,0,0,0,0,.1Z" style="fill:#263238"></path><path d="M180.94,352.23a.77.77,0,0,1-.79.79h-5.1a.77.77,0,0,1-.59-.26.8.8,0,0,1,0-1.12l4.25-3.84a1.81,1.81,0,0,0,.6-1.38,1.89,1.89,0,0,0-.47-1.25,1.86,1.86,0,0,0-1.38-.6,1.93,1.93,0,0,0-1.25.47l-.44.41a.78.78,0,0,1-1.12-.06.79.79,0,0,1,.06-1.12l.44-.4a3.4,3.4,0,0,1,2.31-.89,3.46,3.46,0,0,1,2.55,1.13,3.36,3.36,0,0,1,.89,2.31,3.46,3.46,0,0,1-1.13,2.56l-2.71,2.45h3.05A.79.79,0,0,1,180.94,352.23Z" style="fill:#263238"></path><path d="M182.94,346.45a3.48,3.48,0,0,1,6.94-.36s0,0,0,0c0,.27,0,.55,0,.82a8.38,8.38,0,0,1-.5,2.94,5.06,5.06,0,0,1-1.85,2.45,4.15,4.15,0,0,1-2.15.68.8.8,0,0,1-.83-.76.83.83,0,0,1,.77-.84,2.59,2.59,0,0,0,1.35-.4,2.83,2.83,0,0,0,.9-1c.07-.12.13-.25.19-.38a3.35,3.35,0,0,1-1.38.29A3.47,3.47,0,0,1,182.94,346.45Zm1.59,0a1.89,1.89,0,1,0,3.77,0,1.89,1.89,0,0,0-3.77,0Z" style="fill:#263238"></path><path d="M193.29,351a1.09,1.09,0,0,1,1.08,1.08,1.07,1.07,0,0,1-1.08,1.06,1.05,1.05,0,0,1-1.06-1.06A1.07,1.07,0,0,1,193.29,351Z" style="fill:#263238"></path><path d="M195.3,346.45a3.48,3.48,0,0,1,6.94-.36s0,0,0,0c0,.27,0,.55,0,.82a8.38,8.38,0,0,1-.5,2.94,5,5,0,0,1-1.85,2.45,4.12,4.12,0,0,1-2.15.68.81.81,0,0,1-.83-.76.83.83,0,0,1,.77-.84,2.56,2.56,0,0,0,1.35-.4,3,3,0,0,0,.91-1c.07-.12.12-.25.18-.38a3.31,3.31,0,0,1-1.38.29A3.47,3.47,0,0,1,195.3,346.45Zm1.59,0a1.89,1.89,0,1,0,3.77,0,1.89,1.89,0,0,0-3.77,0Z" style="fill:#263238"></path><path d="M204.51,346.45a3.48,3.48,0,0,1,6.94-.36s0,0,0,0c0,.27,0,.55,0,.82a8.38,8.38,0,0,1-.5,2.94,5.06,5.06,0,0,1-1.85,2.45A4.12,4.12,0,0,1,207,353a.8.8,0,0,1-.83-.76.83.83,0,0,1,.77-.84,2.56,2.56,0,0,0,1.35-.4,2.83,2.83,0,0,0,.9-1c.07-.12.13-.25.19-.38a3.35,3.35,0,0,1-1.38.29A3.47,3.47,0,0,1,204.51,346.45Zm1.59,0a1.89,1.89,0,1,0,3.77,0,1.89,1.89,0,0,0-3.77,0Z" style="fill:#263238"></path><path d="M122.83,322.33c40.61-.3,86.16-.3,126.77,0-40.61.31-86.16.31-126.77,0Z" style="fill:#ebebeb"></path><rect x="158.05" y="365.33" width="55.3" height="15.4" style="fill:#6366F1"></rect><path d="M177.15,373.62h-.82v1.46a.37.37,0,0,1-.38.36.36.36,0,0,1-.36-.36v-3.95a.36.36,0,0,1,.36-.37h1.2a1.43,1.43,0,1,1,0,2.86Zm-.82-.74h.82a.69.69,0,1,0,0-1.38h-.82Z" style="fill:#fff"></path><path d="M181.41,374.34h-1.63l-.33.87a.36.36,0,0,1-.34.23H179a.39.39,0,0,1-.22-.49l1.48-3.94a.39.39,0,0,1,.35-.24.38.38,0,0,1,.36.24l1.48,3.94a.39.39,0,0,1-.22.49h-.13a.35.35,0,0,1-.34-.23Zm-.27-.74-.55-1.44-.54,1.44Z" style="fill:#fff"></path><path d="M186.1,371.39l-1.37,1.88v1.81a.36.36,0,0,1-.37.36.37.37,0,0,1-.37-.36v-1.81l-1.36-1.88a.37.37,0,0,1,.59-.43l1.14,1.56,1.15-1.56a.36.36,0,0,1,.51-.08A.37.37,0,0,1,186.1,371.39Z" style="fill:#fff"></path><path d="M189.63,375.08a.36.36,0,0,1-.36.36.36.36,0,0,1-.37-.36v-3.89h0a.36.36,0,0,1,.15-.31.38.38,0,0,1,.51.08l2.16,3v-2.76a.37.37,0,0,1,.36-.37.38.38,0,0,1,.37.37v3.89a.37.37,0,0,1-.37.36.37.37,0,0,1-.28-.13l0,0-2.14-3Z" style="fill:#fff"></path><path d="M197.41,371.34a2.45,2.45,0,0,1,0,3.39,2.19,2.19,0,0,1-1.6.71,2.28,2.28,0,0,1-1.64-.71,2.51,2.51,0,0,1,0-3.39,2.25,2.25,0,0,1,1.64-.72A2.16,2.16,0,0,1,197.41,371.34Zm-.08,1.69a1.73,1.73,0,0,0-.46-1.17,1.45,1.45,0,0,0-2.14,0,1.73,1.73,0,0,0-.46,1.17,1.69,1.69,0,0,0,.46,1.17,1.43,1.43,0,0,0,2.14,0A1.69,1.69,0,0,0,197.33,373Z" style="fill:#fff"></path><path d="M205.35,371.31l-1.64,3.91,0,.06h0a.08.08,0,0,1,0,0v0a.1.1,0,0,0,0,0h0s0,0-.06,0h-.29l-.06,0h0l0,0s0,0,0,0l0,0h0s0,0,0-.06l-.88-2.08-.87,2.08,0,.06h0a.08.08,0,0,1,0,0v0l0,0h0l0,0h-.3l-.06,0h0l0,0s0,0,0,0l0,0h0l0-.06L199,371.31a.37.37,0,0,1,.68-.28l1.31,3.1.86-2.05a.38.38,0,0,1,.7,0l.86,2.05,1.31-3.1a.37.37,0,0,1,.49-.19A.36.36,0,0,1,205.35,371.31Z" style="fill:#fff"></path><rect x="166.02" y="372.43" width="5.08" height="3.73" style="fill:#fff"></rect><path d="M170.48,372.66h-.72c0-1.78-.29-2.39-1.14-2.39s-1.27.58-1.27,2.39h-.72c0-1.09,0-3.1,2-3.1S170.48,371.57,170.48,372.66Z" style="fill:#fff"></path><path d="M244.93,239.86l-4.61,46.08a4.7,4.7,0,0,1-5.13,4.2l-73.09-7.32a4.68,4.68,0,0,1-4.19-5.13l4.61-46.08a4.37,4.37,0,0,1,4.78-3.91L241,235.08A4.37,4.37,0,0,1,244.93,239.86Z" style="fill:#37474f"></path><rect x="160.87" y="245.07" width="82.83" height="10.31" transform="translate(26.63 -19.36) rotate(5.86)" style="fill:#263238"></rect><rect x="165.16" y="258.9" width="71.9" height="5.78" transform="translate(27.8 -19.18) rotate(5.86)" style="fill:#fff"></rect><path d="M229.24,263.43l-.47.22h-.05a.1.1,0,0,1-.09-.06.11.11,0,0,1,.05-.15l.64-.3a.11.11,0,0,1,.14.05.28.28,0,0,1,0,.09l-.29,2.85a.1.1,0,0,1-.12.1.11.11,0,0,1-.09-.12Z" style="fill:#263238"></path><path d="M230,266.14l1.59-1.17a.8.8,0,0,0,.32-.57.78.78,0,0,0-.15-.55.8.8,0,0,0-.57-.32.77.77,0,0,0-.56.15l-.16.12a.1.1,0,0,1-.15,0,.11.11,0,0,1,0-.15l.17-.13a1,1,0,0,1,.72-.19,1,1,0,0,1,.71.41,1,1,0,0,1,.2.7,1,1,0,0,1-.41.72l-1.36,1,1.47.15a.11.11,0,0,1,0,.22l-1.73-.17h0a.09.09,0,0,1-.08,0A.11.11,0,0,1,230,266.14Z" style="fill:#263238"></path><path d="M234.73,263.86l-.89.75a1.07,1.07,0,0,1,.51.34,1,1,0,0,1,.23.77,1.08,1.08,0,0,1-.39.72,1,1,0,0,1-.77.23,1,1,0,0,1-.71-.38.1.1,0,0,1,0-.16.11.11,0,0,1,.16,0,.81.81,0,0,0,.56.3.84.84,0,0,0,.92-.75.83.83,0,0,0-.19-.61.81.81,0,0,0-.56-.3.1.1,0,0,1-.08-.06h0a.11.11,0,0,1,0-.16l.85-.71-1.19-.12a.11.11,0,0,1-.1-.13.11.11,0,0,1,.12-.1l1.45.15a.1.1,0,0,1,.1.12.07.07,0,0,1,0,.05Z" style="fill:#263238"></path><rect x="164.24" y="269.82" width="56.08" height="1.13" transform="translate(28.63 -18.23) rotate(5.86)" style="fill:#263238"></rect><rect x="164.01" y="272.12" width="58.51" height="1.13" transform="translate(28.87 -18.32) rotate(5.86)" style="fill:#263238"></rect><rect x="163.8" y="273.98" width="52.35" height="1.13" transform="translate(29.05 -17.97) rotate(5.86)" style="fill:#263238"></rect><rect x="163.6" y="275.74" width="44.29" height="1.13" transform="matrix(0.99, 0.1, -0.1, 0.99, 29.21, -17.53)" style="fill:#263238"></rect><path d="M208,211.9l7.5,45.7a4.69,4.69,0,0,1-3.87,5.39l-72.48,11.89a4.68,4.68,0,0,1-5.38-3.87l-7.5-45.7a4.36,4.36,0,0,1,3.6-5l73.12-12A4.37,4.37,0,0,1,208,211.9Z" style="fill:#455a64"></path><path d="M145.48,236.68l-4.74.78a5.37,5.37,0,0,1-6.17-4.43h0a5.37,5.37,0,0,1,4.43-6.17l4.74-.78a5.37,5.37,0,0,1,6.17,4.43h0A5.37,5.37,0,0,1,145.48,236.68Z" style="fill:#6366F1"></path><path d="M200.07,222.81,193.13,224a3,3,0,0,1-3.39-2.43h0a3,3,0,0,1,2.43-3.39l6.94-1.13a2.94,2.94,0,0,1,3.39,2.43h0A3,3,0,0,1,200.07,222.81Z" style="fill:#fff"></path><path d="M136.46,248.09l-.56.47a.2.2,0,0,1-.08,0,.15.15,0,0,1-.14-.06.15.15,0,0,1,0-.22l.77-.66a.16.16,0,0,1,.22,0,.15.15,0,0,1,0,.11l.67,4.08a.15.15,0,0,1-.13.18.14.14,0,0,1-.17-.13Z" style="fill:#fff"></path><path d="M138.47,251.58l1.77-2.21a1.2,1.2,0,0,0,.25-.92,1.18,1.18,0,0,0-.43-.71,1.16,1.16,0,0,0-.91-.24,1.22,1.22,0,0,0-.72.42l-.19.24a.14.14,0,0,1-.21,0,.13.13,0,0,1,0-.21l.18-.24a1.47,1.47,0,0,1,2.07-.24,1.47,1.47,0,0,1,.24,2.07l-1.51,1.9,2.1-.34a.16.16,0,0,1,.18.13.17.17,0,0,1-.13.18l-2.48.41h0a.14.14,0,0,1-.13,0A.18.18,0,0,1,138.47,251.58Z" style="fill:#fff"></path><path d="M144.28,246.63l-1,1.37a1.5,1.5,0,0,1,.83.28,1.52,1.52,0,0,1,.61,1,1.44,1.44,0,0,1-.27,1.14,1.49,1.49,0,0,1-1,.62,1.54,1.54,0,0,1-1.14-.27.16.16,0,0,1,0-.22.15.15,0,0,1,.22,0,1.22,1.22,0,0,0,.9.21,1.25,1.25,0,0,0,.79-.49,1.22,1.22,0,0,0,.21-.9,1.2,1.2,0,0,0-.49-.78,1.17,1.17,0,0,0-.9-.21.13.13,0,0,1-.13-.05h0a.16.16,0,0,1,0-.23l.92-1.32-1.7.28a.18.18,0,0,1-.19-.14.16.16,0,0,1,.13-.18l2.08-.34a.16.16,0,0,1,.19.13.15.15,0,0,1,0,.07A.14.14,0,0,1,144.28,246.63Z" style="fill:#fff"></path><path d="M148.55,249.27l-2.41.4h0a.1.1,0,0,1-.1,0,.15.15,0,0,1-.06-.21l2-3.63h0a.15.15,0,0,1,.21-.06.19.19,0,0,1,.06.07l0,0h0l.5,3.06.3,0a.15.15,0,1,1,0,.3l-.3.05.12.76a.15.15,0,0,1-.13.18.16.16,0,0,1-.18-.12Zm-.05-.3-.43-2.61-1.68,2.95Z" style="fill:#fff"></path><path d="M154.2,248.83a.15.15,0,0,1,0-.22.16.16,0,0,1,.22,0,1.24,1.24,0,0,0,.9.21,1.14,1.14,0,0,0,.78-.49,1.21,1.21,0,0,0-.27-1.68,1.19,1.19,0,0,0-.89-.21,1.18,1.18,0,0,0-.79.49.16.16,0,0,1-.22,0,.08.08,0,0,1-.05-.05h0v0s0,0,0-.05,0,0,0,0l-.08-1.82a.14.14,0,0,1,0-.13.12.12,0,0,1,.1,0l2.07-.34a.16.16,0,1,1,0,.31l-1.94.32.06,1.35a1.63,1.63,0,0,1,.72-.33,1.52,1.52,0,0,1,1.14.27,1.48,1.48,0,0,1,.61,1,1.51,1.51,0,0,1-.26,1.14,1.6,1.6,0,0,1-1,.62A1.52,1.52,0,0,1,154.2,248.83Z" style="fill:#fff"></path><path d="M157.94,245.1a1.83,1.83,0,0,1,1.4-1.22.16.16,0,0,1,.18.12.16.16,0,0,1-.12.19,1.55,1.55,0,0,0-1.17,1,2.85,2.85,0,0,0-.17.94,1.48,1.48,0,0,1,1-.68,1.49,1.49,0,1,1-1.22,1.76,2.47,2.47,0,0,1-.06-.29A3.72,3.72,0,0,1,157.94,245.1Zm.23,2.05a.19.19,0,0,0,0,.08,0,0,0,0,1,0,.05,1.21,1.21,0,1,0,0-.15Z" style="fill:#fff"></path><path d="M162.62,247.68l1-4.17-2.15.35a.15.15,0,0,1-.18-.13.15.15,0,0,1,.13-.17l2.35-.39a.16.16,0,0,1,.1,0,.18.18,0,0,1,.09.08s0,0,0,0a.1.1,0,0,1,0,.09l-1,4.37a.15.15,0,0,1-.12.12h-.07A.18.18,0,0,1,162.62,247.68Z" style="fill:#fff"></path><path d="M166.32,242.73a.93.93,0,0,1,1.08.77,1,1,0,0,1-.26.81,1.46,1.46,0,1,1-1.1.18,1,1,0,0,1-.49-.69A.93.93,0,0,1,166.32,242.73Zm.68,4.14a1.15,1.15,0,1,0-.37-2.27,1.15,1.15,0,0,0,.37,2.27Zm-.42-2.59a.65.65,0,0,0,.52-.73.63.63,0,0,0-.73-.52.62.62,0,0,0-.51.72A.63.63,0,0,0,166.58,244.28Z" style="fill:#fff"></path><path d="M174.23,241.43a1.49,1.49,0,0,1,1.68,1.06s0,0,0,0,.06.24.08.37a3.64,3.64,0,0,1-.14,1.85,1.85,1.85,0,0,1-1.39,1.22h0a.15.15,0,0,1-.18-.12.15.15,0,0,1,.12-.19,1.55,1.55,0,0,0,1.17-1,2.9,2.9,0,0,0,.17-.94,1.46,1.46,0,0,1-1,.67,1.48,1.48,0,1,1-.48-2.93Zm1.41,1.27a1.18,1.18,0,1,0-1,1.35A1.17,1.17,0,0,0,175.64,242.7Z" style="fill:#fff"></path><path d="M177.2,243.23a2.91,2.91,0,0,1,.17-1.63,1.28,1.28,0,0,1,2.23-.37,2.9,2.9,0,0,1,.68,1.49,2.87,2.87,0,0,1-.17,1.62,1.38,1.38,0,0,1-1,.86,1.42,1.42,0,0,1-1.22-.49A2.87,2.87,0,0,1,177.2,243.23Zm.31,0a2.58,2.58,0,0,0,.6,1.31,1.11,1.11,0,0,0,.94.4,1.09,1.09,0,0,0,.77-.68,2.74,2.74,0,0,0-.46-2.76,1,1,0,0,0-1.7.28A2.62,2.62,0,0,0,177.51,243.18Z" style="fill:#fff"></path><path d="M182.05,240.61l-.57.47a.13.13,0,0,1-.07,0,.17.17,0,0,1-.15-.05.15.15,0,0,1,0-.22l.77-.67a.16.16,0,0,1,.22,0,.21.21,0,0,1,0,.11l.67,4.09a.15.15,0,0,1-.13.17.15.15,0,0,1-.18-.12Z" style="fill:#fff"></path><path d="M184.06,244.11l1.77-2.22a1.18,1.18,0,0,0,.24-.91,1.12,1.12,0,0,0-.42-.72,1.18,1.18,0,0,0-.91-.24,1.21,1.21,0,0,0-.73.42l-.18.24a.16.16,0,1,1-.25-.19l.19-.24a1.51,1.51,0,0,1,.92-.54,1.48,1.48,0,0,1,1.15.3,1.47,1.47,0,0,1,.24,2.07l-1.52,1.9,2.11-.34a.15.15,0,0,1,.17.13.15.15,0,0,1-.12.18l-2.48.41h0a.16.16,0,0,1-.12,0A.17.17,0,0,1,184.06,244.11Z" style="fill:#fff"></path><path d="M193.68,238.53l-1,1.37a1.5,1.5,0,0,1,1.44,1.28,1.49,1.49,0,0,1-.27,1.14,1.52,1.52,0,0,1-2.13.35.16.16,0,0,1,0-.23.15.15,0,0,1,.22,0,1.2,1.2,0,0,0,.89.2,1.19,1.19,0,0,0,1-1.38,1.16,1.16,0,0,0-.48-.78,1.18,1.18,0,0,0-.9-.22.18.18,0,0,1-.14,0h0a.16.16,0,0,1,0-.23l.92-1.32-1.71.28a.15.15,0,0,1-.18-.13.15.15,0,0,1,.13-.18l2.08-.35a.18.18,0,0,1,.19.14.17.17,0,0,1,0,.07A.14.14,0,0,1,193.68,238.53Z" style="fill:#fff"></path><path d="M197.94,241.17l-2.4.39h0a.16.16,0,0,1-.1,0,.14.14,0,0,1-.06-.21l2-3.63h0a.14.14,0,0,1,.21,0,.11.11,0,0,1,.06.07s0,0,0,0v0l.5,3.05.3-.05a.17.17,0,0,1,.18.13.17.17,0,0,1-.13.18l-.3.05.12.76a.16.16,0,0,1-.13.18.17.17,0,0,1-.18-.13Zm-.05-.31-.42-2.6-1.68,3Z" style="fill:#fff"></path><path d="M199.79,241.36a.16.16,0,0,1,0-.23.16.16,0,0,1,.23,0,1.21,1.21,0,0,0,.9.2,1.19,1.19,0,0,0,.78-.49,1.2,1.2,0,0,0,.21-.89,1.2,1.2,0,0,0-2.17-.51.16.16,0,0,1-.22,0l0,0h0s0,0,0,0a.43.43,0,0,1,0,0v0l-.08-1.83a.13.13,0,0,1,0-.13.11.11,0,0,1,.09-.05l2.08-.34a.15.15,0,0,1,.18.13.16.16,0,0,1-.13.19l-1.94.31.06,1.35a1.54,1.54,0,0,1,.72-.33,1.54,1.54,0,0,1,1.75,1.27,1.52,1.52,0,0,1-1.26,1.75A1.56,1.56,0,0,1,199.79,241.36Z" style="fill:#fff"></path><path d="M203.53,237.62a1.82,1.82,0,0,1,1.4-1.22.16.16,0,0,1,.18.12.17.17,0,0,1-.13.19,1.52,1.52,0,0,0-1.16,1,2.9,2.9,0,0,0-.17.94,1.46,1.46,0,0,1,1-.68,1.49,1.49,0,1,1-1.21,1.76,2.46,2.46,0,0,1-.07-.29A3.73,3.73,0,0,1,203.53,237.62Zm.22,2a.34.34,0,0,0,0,.08v.05a1.18,1.18,0,1,0,.94-1.5,1.18,1.18,0,0,0-1,1.35Z" style="fill:#fff"></path><rect x="138.83" y="256.43" width="39.33" height="1.93" transform="translate(-39.58 29.06) rotate(-9.32)" style="fill:#fff"></rect><rect x="139.6" y="261.6" width="27.84" height="1.93" transform="translate(-40.48 28.32) rotate(-9.32)" style="fill:#fff"></rect><rect x="167.27" y="220.62" width="19.62" height="1.93" transform="translate(-33.54 31.59) rotate(-9.32)" style="fill:#fff"></rect><rect x="134.28" y="163.51" width="103.86" height="1" style="fill:#6366F1"></rect><path d="M138.24,164a4,4,0,1,1-4-4A4,4,0,0,1,138.24,164Z" style="fill:#6366F1"></path><path d="M190.17,164a4,4,0,1,1-4-4A4,4,0,0,1,190.17,164Z" style="fill:#6366F1"></path><path d="M242.1,164a4,4,0,1,1-4-4A4,4,0,0,1,242.1,164Z" style="fill:#6366F1"></path><path d="M240.36,164a2.22,2.22,0,1,1-2.22-2.21A2.21,2.21,0,0,1,240.36,164Z" style="fill:#fff"></path><path d="M131.65,173.08,131,174v.9a.18.18,0,1,1-.36,0V174l-.68-.93a.18.18,0,0,1,0-.26.18.18,0,0,1,.25,0l.57.78.57-.78a.18.18,0,0,1,.25,0A.19.19,0,0,1,131.65,173.08Z"></path><path d="M133.68,173.05a1.2,1.2,0,0,1,.34.84,1.19,1.19,0,0,1-.34.84,1.08,1.08,0,0,1-1.61,0,1.18,1.18,0,0,1-.33-.84,1.2,1.2,0,0,1,.33-.84,1.1,1.1,0,0,1,1.61,0Zm0,.84a.86.86,0,0,0-.23-.58.72.72,0,0,0-.53-.23.69.69,0,0,0-.53.23.86.86,0,0,0-.23.58.82.82,0,0,0,.23.58.7.7,0,0,0,.53.24.73.73,0,0,0,.53-.24A.82.82,0,0,0,133.64,173.89Z"></path><path d="M135.49,175.09a1,1,0,0,1-1-1V173a.18.18,0,0,1,.19-.19.18.18,0,0,1,.18.19v1.18a.6.6,0,0,0,1.19,0V173a.18.18,0,0,1,.18-.19.18.18,0,0,1,.19.19v1.18A1,1,0,0,1,135.49,175.09Z"></path><path d="M138.69,174.81a.19.19,0,0,1-.12.24h-.08a.27.27,0,0,1-.13,0,.29.29,0,0,1-.1-.12.8.8,0,0,1-.07-.39.46.46,0,0,0,0-.15.29.29,0,0,0-.1-.09.45.45,0,0,0-.19-.08h-.39v.72a.18.18,0,0,1-.19.18.18.18,0,0,1-.18-.18v-2a.18.18,0,0,1,.18-.19h.6a.71.71,0,0,1,.71.72.69.69,0,0,1-.26.54l.12.13a.67.67,0,0,1,.11.36.5.5,0,0,0,0,.19A.22.22,0,0,1,138.69,174.81Zm-.47-1.33a.34.34,0,0,0-.34-.35h-.41v.69h.41A.34.34,0,0,0,138.22,173.48Z"></path><path d="M130.84,177a1.22,1.22,0,0,1,0,1.69,1.11,1.11,0,0,1-.79.35,1.15,1.15,0,0,1-.82-.35,1.25,1.25,0,0,1,0-1.69,1.11,1.11,0,0,1,.82-.35A1.08,1.08,0,0,1,130.84,177Zm0,.84a.86.86,0,0,0-.23-.58.7.7,0,0,0-.52-.23.71.71,0,0,0-.54.23.86.86,0,0,0-.23.58.82.82,0,0,0,.23.58.72.72,0,0,0,.54.24.71.71,0,0,0,.52-.24A.82.82,0,0,0,130.8,177.88Z"></path><path d="M133.37,178.81a.18.18,0,0,1-.11.23h-.08a.27.27,0,0,1-.13,0,.38.38,0,0,1-.11-.11,1,1,0,0,1-.07-.4.22.22,0,0,0,0-.15.29.29,0,0,0-.1-.09.42.42,0,0,0-.18-.08h-.4v.72a.18.18,0,0,1-.36,0v-2a.18.18,0,0,1,.18-.19h.59a.72.72,0,0,1,.72.72.38.38,0,0,0-.15.67.59.59,0,0,1,.11.36.66.66,0,0,0,0,.19A.19.19,0,0,1,133.37,178.81Zm-.46-1.34a.35.35,0,0,0-.35-.35h-.41v.69h.41A.35.35,0,0,0,132.91,177.47Z"></path><path d="M133.91,178.9v-2a.18.18,0,0,1,.18-.19h.4a1.17,1.17,0,0,1,0,2.33h-.4A.18.18,0,0,1,133.91,178.9Zm.37-.19h.21a.8.8,0,0,0,0-1.59h-.21Z"></path><path d="M136.14,178.9v-2a.18.18,0,0,1,.18-.19h1.09a.19.19,0,0,1,.18.19.19.19,0,0,1-.18.18h-.9v.61h.77a.19.19,0,0,1,.18.18.18.18,0,0,1-.18.19h-.77v.61h.9a.2.2,0,0,1,.18.19.19.19,0,0,1-.18.18h-1.09A.18.18,0,0,1,136.14,178.9Z"></path><path d="M139.72,178.81a.18.18,0,0,1-.12.23h-.08a.27.27,0,0,1-.23-.15.87.87,0,0,1-.07-.4.46.46,0,0,0,0-.15.29.29,0,0,0-.1-.09.45.45,0,0,0-.19-.08h-.39v.72a.19.19,0,0,1-.19.18.18.18,0,0,1-.18-.18v-2a.18.18,0,0,1,.18-.19h.6a.71.71,0,0,1,.71.72.69.69,0,0,1-.26.54l.12.13a.67.67,0,0,1,.11.36.48.48,0,0,0,0,.19A.2.2,0,0,1,139.72,178.81Zm-.47-1.34a.35.35,0,0,0-.34-.35h-.41v.69h.41A.34.34,0,0,0,139.25,177.47Z"></path><path d="M178.79,174.91v-2a.18.18,0,0,1,.18-.19h.39a1.17,1.17,0,1,1,0,2.33H179A.18.18,0,0,1,178.79,174.91Zm.37-.19h.2a.8.8,0,1,0,0-1.59h-.2Z"></path><path d="M181,174.91v-2a.18.18,0,0,1,.19-.19h1.09a.19.19,0,0,1,.18.19.19.19,0,0,1-.18.18h-.91v.61h.78a.19.19,0,0,1,.18.18.18.18,0,0,1-.18.19h-.78v.61h.91a.19.19,0,0,1,.18.19.19.19,0,0,1-.18.18H181.2A.18.18,0,0,1,181,174.91Z"></path><path d="M183,174.91v-2a.19.19,0,0,1,.18-.19.2.2,0,0,1,.19.19v1.77h.9a.19.19,0,0,1,.18.19.19.19,0,0,1-.18.18h-1.09A.18.18,0,0,1,183,174.91Z"></path><path d="M184.9,173a.18.18,0,0,1,.18-.19.19.19,0,0,1,.19.19v2a.19.19,0,0,1-.19.18.18.18,0,0,1-.18-.18Z"></path><path d="M186.65,175.06l0,0h0s0,0,0,0h0s0,0,0,0l-.82-1.94a.18.18,0,0,1,.1-.24.19.19,0,0,1,.24.1l.65,1.54.64-1.54a.19.19,0,0,1,.24-.1.18.18,0,0,1,.1.24l-.82,1.94a0,0,0,0,1,0,0h0l0,0h0s0,0,0,0h0l0,0h-.15s0,0,0,0Z"></path><path d="M188.29,174.91v-2a.18.18,0,0,1,.18-.19h1.09a.19.19,0,0,1,.18.19.19.19,0,0,1-.18.18h-.9v.61h.77a.19.19,0,0,1,.18.18.18.18,0,0,1-.18.19h-.77v.61h.9a.19.19,0,0,1,.18.19.19.19,0,0,1-.18.18h-1.09A.18.18,0,0,1,188.29,174.91Z"></path><path d="M191.87,174.81a.19.19,0,0,1-.12.24h-.08a.27.27,0,0,1-.13,0,.29.29,0,0,1-.1-.12.8.8,0,0,1-.07-.39.46.46,0,0,0,0-.15.29.29,0,0,0-.1-.09.45.45,0,0,0-.19-.08h-.39v.72a.19.19,0,0,1-.19.18.18.18,0,0,1-.18-.18v-2a.18.18,0,0,1,.18-.19h.6a.71.71,0,0,1,.71.72.69.69,0,0,1-.26.54l.12.13a.67.67,0,0,1,.11.36.5.5,0,0,0,0,.19A.22.22,0,0,1,191.87,174.81Zm-.47-1.33a.34.34,0,0,0-.34-.35h-.41v.69h.41A.34.34,0,0,0,191.4,173.48Z"></path><path d="M193.94,173.08l-.68.93v.9a.18.18,0,0,1-.18.18.19.19,0,0,1-.19-.18V174l-.67-.93a.18.18,0,1,1,.29-.22l.57.78.57-.78a.18.18,0,0,1,.25,0A.19.19,0,0,1,193.94,173.08Z"></path><path d="M180.66,177a1.22,1.22,0,0,1,0,1.69,1.08,1.08,0,0,1-.79.35,1.12,1.12,0,0,1-.81-.35,1.25,1.25,0,0,1,0-1.69,1.09,1.09,0,0,1,.81-.35A1,1,0,0,1,180.66,177Zm0,.84a.9.9,0,0,0-.22-.58.74.74,0,0,0-1.07,0,.86.86,0,0,0-.23.58.82.82,0,0,0,.23.58.72.72,0,0,0,1.07,0A.86.86,0,0,0,180.62,177.88Z"></path><path d="M182.44,178.18H182v.72a.19.19,0,0,1-.19.18.18.18,0,0,1-.18-.18v-2a.18.18,0,0,1,.18-.19h.6a.72.72,0,0,1,0,1.43Zm-.41-.37h.41a.34.34,0,0,0,.34-.34.35.35,0,0,0-.34-.35H182Z"></path><path d="M185,177.12h-.53v1.78a.18.18,0,0,1-.18.18.19.19,0,0,1-.19-.18v-1.78h-.52a.18.18,0,0,1-.18-.18.18.18,0,0,1,.18-.19H185a.18.18,0,0,1,.18.19A.18.18,0,0,1,185,177.12Z"></path><path d="M185.77,176.94a.18.18,0,0,1,.19-.19.18.18,0,0,1,.18.19v2a.18.18,0,0,1-.18.18.18.18,0,0,1-.19-.18Z"></path><path d="M188.6,177a1.22,1.22,0,0,1,0,1.69,1.1,1.1,0,0,1-.79.35,1.15,1.15,0,0,1-.82-.35,1.25,1.25,0,0,1,0-1.69,1.11,1.11,0,0,1,.82-.35A1.06,1.06,0,0,1,188.6,177Zm0,.84a.86.86,0,0,0-.23-.58.7.7,0,0,0-.52-.23.71.71,0,0,0-.54.23.86.86,0,0,0-.23.58.82.82,0,0,0,.23.58.72.72,0,0,0,.54.24.71.71,0,0,0,.52-.24A.82.82,0,0,0,188.56,177.88Z"></path><path d="M189.87,178.9a.18.18,0,1,1-.36,0V177h0a.19.19,0,0,1,.07-.15.19.19,0,0,1,.26,0l1.07,1.49V177a.18.18,0,0,1,.36,0v1.93a.18.18,0,0,1-.18.18A.2.2,0,0,1,191,179a0,0,0,0,0,0,0l-1.07-1.48Z"></path><path d="M192,178.5a.17.17,0,0,1,.24,0,1.12,1.12,0,0,0,.64.26.67.67,0,0,0,.41-.13.3.3,0,0,0,.15-.24.17.17,0,0,0,0-.1.24.24,0,0,0-.1-.1,1.28,1.28,0,0,0-.46-.16h0a2,2,0,0,1-.43-.13.77.77,0,0,1-.31-.26.5.5,0,0,1-.07-.27.64.64,0,0,1,.26-.49,1,1,0,0,1,.58-.17,1.32,1.32,0,0,1,.73.26.19.19,0,0,1,0,.24.16.16,0,0,1-.23.05,1,1,0,0,0-.54-.21.6.6,0,0,0-.37.11.28.28,0,0,0-.13.21.2.2,0,0,0,0,.09l.09.09a1.34,1.34,0,0,0,.42.15h0a2.06,2.06,0,0,1,.46.13.9.9,0,0,1,.33.28.54.54,0,0,1,.08.28.64.64,0,0,1-.29.52,1,1,0,0,1-.61.19,1.44,1.44,0,0,1-.86-.33A.18.18,0,0,1,192,178.5Z"></path><path d="M231.81,174.19h-.41v.72a.18.18,0,0,1-.18.18.19.19,0,0,1-.19-.18v-2a.19.19,0,0,1,.19-.19h.59a.72.72,0,1,1,0,1.43Zm-.41-.37h.41a.36.36,0,0,0,.35-.34.35.35,0,0,0-.35-.35h-.41Z"></path><path d="M233.93,174.54h-.81L233,175a.18.18,0,0,1-.18.12h-.06a.19.19,0,0,1-.11-.24l.73-2a.18.18,0,0,1,.18-.11.17.17,0,0,1,.18.11l.73,2a.18.18,0,0,1-.11.24h-.06a.18.18,0,0,1-.17-.12Zm-.14-.36-.27-.72-.27.72Z"></path><path d="M236.26,173.08l-.68.93v.9a.18.18,0,0,1-.19.18.19.19,0,0,1-.18-.18V174l-.67-.93a.18.18,0,0,1,0-.26.17.17,0,0,1,.25,0l.57.78.57-.78a.19.19,0,0,1,.26,0A.2.2,0,0,1,236.26,173.08Z"></path><path d="M238.65,173v2a.19.19,0,0,1-.19.18.18.18,0,0,1-.18-.18v-1.4l-.48.66a.18.18,0,0,1-.15.08h0a.21.21,0,0,1-.16-.08l-.47-.66v1.4a.19.19,0,0,1-.19.18.18.18,0,0,1-.18-.18v-2a.19.19,0,0,1,.18-.19h0a.21.21,0,0,1,.15.08l.66.92.66-.92a.19.19,0,0,1,.15-.08h0A.2.2,0,0,1,238.65,173Z"></path><path d="M239.29,174.91v-2a.18.18,0,0,1,.18-.19h1.09a.18.18,0,0,1,.18.19.18.18,0,0,1-.18.18h-.9v.61h.77a.2.2,0,0,1,.19.18.19.19,0,0,1-.19.19h-.77v.61h.9a.18.18,0,0,1,.18.19.18.18,0,0,1-.18.18h-1.09A.18.18,0,0,1,239.29,174.91Z"></path><path d="M241.63,174.91a.19.19,0,0,1-.18.18.18.18,0,0,1-.19-.18V173h0a.21.21,0,0,1,.08-.15.18.18,0,0,1,.25,0l1.07,1.49V173a.19.19,0,0,1,.18-.18.19.19,0,0,1,.19.18v1.93a.19.19,0,0,1-.19.18.17.17,0,0,1-.13-.07s0,0,0,0l-1.06-1.47Z"></path><path d="M245.22,173.13h-.53v1.78a.18.18,0,0,1-.19.18.19.19,0,0,1-.18-.18v-1.78h-.52a.19.19,0,0,1-.19-.18.18.18,0,0,1,.19-.19h1.42a.18.18,0,0,1,.18.19A.19.19,0,0,1,245.22,173.13Z"></path><path d="M233.42,176.94v2a.19.19,0,0,1-.19.18.18.18,0,0,1-.18-.18v-1.4l-.48.66a.19.19,0,0,1-.15.08h0a.19.19,0,0,1-.15-.08l-.47-.66v1.4a.19.19,0,0,1-.19.18.18.18,0,0,1-.18-.18v-2a.19.19,0,0,1,.18-.19h0a.21.21,0,0,1,.15.08l.66.92.66-.92a.19.19,0,0,1,.15-.08h0A.2.2,0,0,1,233.42,176.94Z"></path><path d="M234.06,178.9v-2a.18.18,0,0,1,.18-.19h1.09a.19.19,0,0,1,.18.19.19.19,0,0,1-.18.18h-.9v.61h.77a.2.2,0,0,1,.19.18.19.19,0,0,1-.19.19h-.77v.61h.9a.2.2,0,0,1,.18.19.19.19,0,0,1-.18.18h-1.09A.18.18,0,0,1,234.06,178.9Z"></path><path d="M237.45,177.12h-.52v1.78a.18.18,0,0,1-.19.18.18.18,0,0,1-.18-.18v-1.78H236a.18.18,0,0,1-.18-.18.18.18,0,0,1,.18-.19h1.42a.19.19,0,1,1,0,.37Z"></path><path d="M238.19,178.9v-2a.18.18,0,0,1,.18-.19.19.19,0,0,1,.19.19v.8h.86v-.8a.18.18,0,0,1,.18-.19.19.19,0,0,1,.19.19v2a.19.19,0,0,1-.19.18.18.18,0,0,1-.18-.18v-.8h-.86v.8a.19.19,0,0,1-.19.18A.18.18,0,0,1,238.19,178.9Z"></path><path d="M242.28,177a1.22,1.22,0,0,1,0,1.69,1.1,1.1,0,0,1-.79.35,1.15,1.15,0,0,1-.82-.35,1.25,1.25,0,0,1,0-1.69,1.11,1.11,0,0,1,.82-.35A1.06,1.06,0,0,1,242.28,177Zm0,.84a.86.86,0,0,0-.23-.58.7.7,0,0,0-.52-.23.71.71,0,0,0-.54.23.86.86,0,0,0-.23.58.82.82,0,0,0,.23.58.72.72,0,0,0,.54.24.71.71,0,0,0,.52-.24A.82.82,0,0,0,242.24,177.88Z"></path><path d="M243.17,178.9v-2a.18.18,0,0,1,.19-.19h.39a1.17,1.17,0,0,1,0,2.33h-.39A.18.18,0,0,1,243.17,178.9Zm.37-.19h.21a.8.8,0,0,0,0-1.59h-.21Z"></path><rect x="131.92" y="301.31" width="108.59" height="1.39" style="fill:#dbdbdb"></rect><rect x="136.24" y="304.74" width="99.95" height="1.39" style="fill:#dbdbdb"></rect><rect x="131.92" y="308.17" width="108.59" height="1.39" style="fill:#dbdbdb"></rect><rect x="143.28" y="311.61" width="85.86" height="1.39" style="fill:#dbdbdb"></rect></g><g id="freepik--Character--inject-41"><path d="M291.55,431c-2-1.41-40.17-54.25-40.35-57.19-.08-1.11,7.3-7.13,16.41-14.14,2-1.52,28.94-32.47,28.94-32.47l25,34.37-29.2,32.1s5.58,26.78,5.43,30S293.5,432.43,291.55,431Z" style="fill: rgb(255, 196, 192);"></path><path d="M291.54,431c-2-1.4-40.16-54.25-40.34-57.19-.08-1.12,7.29-7.13,16.41-14.14.69-.54,4.44-4.69,9.05-9.85l24.73,33.92-9,9.93s5.57,26.78,5.42,30S293.5,432.43,291.54,431Z" style="fill:#ebebeb"></path><path d="M291.59,431.25c-2-1.41-40.39-54.55-40.58-57.51-.07-1.09,7.17-6.73,15.63-14.21,2-1.8,3.86-4.12,6.14-5.84l25.11,34.5-5.5,5.52s5.62,26.93,5.47,30.19S293.56,432.66,291.59,431.25Z" style="fill:#6366F1"></path><path d="M293.17,429c-6.23-9.07-32.18-45.05-39-53.54,0-.07-.1,0,0,0,6,9.12,32.22,44.89,38.93,53.61C293.16,429.24,293.3,429.14,293.17,429Z" style="fill:#263238"></path><path d="M295.28,393.54c-1.88-4-5.52-7.88-10-8.75-.17,0-.21.21-.09.3a61.25,61.25,0,0,1,9.6,8.75A.27.27,0,0,0,295.28,393.54Z" style="fill:#263238"></path><path d="M295.58,397.17c-1.88-4-5.52-7.88-9.95-8.75-.17,0-.22.21-.1.3a60.39,60.39,0,0,1,9.6,8.76A.28.28,0,0,0,295.58,397.17Z" style="fill:#263238"></path><path d="M295.89,400.8c-1.88-4-5.52-7.87-10-8.75-.17,0-.21.22-.09.3a61.31,61.31,0,0,1,9.6,8.76A.28.28,0,0,0,295.89,400.8Z" style="fill:#263238"></path><path d="M296.19,404.44c-1.88-4-5.52-7.88-9.95-8.75-.17,0-.22.21-.1.3a60.8,60.8,0,0,1,9.6,8.75A.27.27,0,0,0,296.19,404.44Z" style="fill:#263238"></path><path d="M308.07,394.15c.9-2.75-1.81-4.7-4.1-5.27a23,23,0,0,0-11.93.41c-.09,0-.1.1-.07.17a.54.54,0,0,0,0,.87c3.17,2.12,6.29,4.77,10,5.86C304.11,396.82,307.22,396.75,308.07,394.15Zm-10.68-1.59c-1.58-1-3.11-2.08-4.73-3,2.33-.07,4.65-.24,7-.08a23.56,23.56,0,0,1,3.35.4c1.7.36,6.71,3,2.42,5.19C303,396.23,299.27,393.76,297.39,392.56Z" style="fill:#263238"></path><path d="M286.51,379.71c.86,3.78,3.32,7.06,5.25,10.35a.53.53,0,0,0,.86,0,.11.11,0,0,0,.18-.06,23,23,0,0,0,1.13-11.88c-.43-2.32-2.21-5.14-5-4.41S286,377.51,286.51,379.71Zm1.36-3.39c2.41-4.15,4.78,1,5,2.73a25.3,25.3,0,0,1,.2,3.37,67.46,67.46,0,0,1-.51,7c-.84-1.68-1.82-3.26-2.73-4.9C288.78,382.52,286.53,378.61,287.87,376.32Z" style="fill:#263238"></path><path d="M316.57,296.65c-2.37,11.7-41.16,48.45-41.16,48.45l33.83,39s59.15-58.86,55.56-84.69C361.67,277,328,186.6,328,186.6H289.2S318.9,285.16,316.57,296.65Z" style="fill:#263238"></path><path d="M316.57,296.65c-2.37,11.7-41.16,48.45-41.16,48.45l33.83,39s59.15-58.86,55.56-84.69C361.67,277,328,186.6,328,186.6H289.2S318.9,285.16,316.57,296.65Z" style="fill:#37474f"></path><path d="M313.08,374.87c-4.49-5.6-3.12-4.06-7.68-9.6-2.23-2.71-16.9-20.53-19.42-22.7-.06,0-.15,0-.12.1,1.7,2.86,16.67,20.42,19,23.09,4.66,5.45,3.38,3.84,8.1,9.24C313,375.1,313.17,375,313.08,374.87Z" style="fill:#263238"></path><path d="M321.39,291c-.56-2.92-1.19-5.82-1.81-8.73q-1.89-8.91-4-17.76-4.2-17.56-9.12-34.93c-3.31-11.62-6.81-23.22-10.84-34.61-.5-1.41-1-2.81-1.52-4.21,0-.11-.21-.06-.17,0,3.49,11.41,7.08,22.79,10.35,34.26s6.28,22.92,9.12,34.46c1.43,5.8,2.75,11.61,4.05,17.44q1,4.29,1.87,8.59a62.19,62.19,0,0,1,1.63,8.86,13.6,13.6,0,0,1-2.28,8c-1.46,2.38-3.17,4.62-4.83,6.86-3.31,4.5-25.18,29.8-26.2,30.76-.08.07,0,.19.12.11,4.24-3.8,21.32-22.91,24.73-27.4,1.68-2.22,3.32-4.48,4.94-6.75a26.74,26.74,0,0,0,3.85-6.8A16,16,0,0,0,321.39,291Z" style="fill:#263238"></path><path d="M321.31,186.6l-7.05,92.49c-6.72-31.66-25.05-92.49-25.05-92.49Z" style="fill:#263238"></path><path d="M389.67,440.79c-2.28.75-67.5.49-70-1.09-.95-.59-1.46-10.1-1.75-21.59-.08-2.49-9.18-42.52-9.18-42.52l42.49.05L360,418.15s24.92,11.27,27.45,13.29S392,440,389.67,440.79Z" style="fill: rgb(255, 196, 192);"></path><path d="M389.67,440.79c-2.28.75-67.5.49-70-1.1-.95-.59-1.46-10.09-1.75-21.59,0-.87-1.17-6.35-2.63-13.11h42l2.7,13.15s24.92,11.28,27.45,13.3S392,440,389.67,440.79Z" style="fill:#ebebeb"></path><path d="M389.87,440.88c-2.29.76-67.88.5-70.37-1.09-.93-.6-1.22-9.76-2.28-21-.25-2.72-1.05-5.55-1.1-8.41l42.67,0,1.22,7.7s25.07,11.33,27.62,13.37S392.17,440.12,389.87,440.88Z" style="fill:#6366F1"></path><path d="M388.94,438.25c-11-.31-55.36-.54-66.25,0-.09,0-.09.06,0,.07,10.89.54,55.26.41,66.25.12C389.17,438.43,389.17,438.26,388.94,438.25Z" style="fill:#263238"></path><path d="M361.57,415.68c-4.32-.83-9.61-.18-12.93,2.89-.13.12,0,.3.18.25a61.2,61.2,0,0,1,12.73-2.59A.28.28,0,0,0,361.57,415.68Z" style="fill:#263238"></path><path d="M364.69,417.57c-4.32-.82-9.62-.18-12.94,2.89-.13.12.05.3.19.26a60.58,60.58,0,0,1,12.73-2.6A.28.28,0,0,0,364.69,417.57Z" style="fill:#263238"></path><path d="M367.8,419.47c-4.32-.83-9.61-.18-12.93,2.89-.13.11,0,.3.18.25a61.35,61.35,0,0,1,12.73-2.6A.27.27,0,0,0,367.8,419.47Z" style="fill:#263238"></path><path d="M370.92,421.36c-4.32-.82-9.62-.18-12.94,2.89-.12.12,0,.3.19.26a60.58,60.58,0,0,1,12.73-2.6A.28.28,0,0,0,370.92,421.36Z" style="fill:#263238"></path><path d="M369.6,405.71c-1.69-2.35-4.86-1.31-6.67.2a23.11,23.11,0,0,0-6.7,9.88.12.12,0,0,0,.1.16.54.54,0,0,0,.68.54c3.57-1.31,7.56-2.26,10.63-4.63C369.43,410.48,371.2,407.93,369.6,405.71ZM362,413.4c-1.74.68-3.51,1.28-5.22,2a68,68,0,0,1,4-5.68,24.45,24.45,0,0,1,2.3-2.47c1.29-1.17,6.4-3.64,5.62,1.1C368.32,411,364.1,412.58,362,413.4Z" style="fill:#263238"></path><path d="M345.24,414.62c3.56,1.53,7.66,1.47,11.45,1.86a.55.55,0,0,0,.52-.7.11.11,0,0,0,.06-.17,23,23,0,0,0-8.94-7.92c-2.13-1-5.46-1.24-6.52,1.45S343.16,413.72,345.24,414.62Zm-1.94-3.09c-1.94-4.41,3.62-3.27,5.16-2.46a25,25,0,0,1,2.85,1.82,69.25,69.25,0,0,1,5.32,4.51c-1.85-.31-3.71-.45-5.57-.68C348.84,414.44,344.36,414,343.3,411.53Z" style="fill:#263238"></path><path d="M327.6,186.6A156.5,156.5,0,0,0,324.26,206c-.81,8.13-1.82,15.31-2.91,16.21s-7.36,4.95-9.42,6.21c0,0,19.13,58,24.06,77.31,7.16,28,21.83,96.22,21.83,96.22H312.15s-11.41-64.16-17.48-90.84c-5.21-22.87-25.14-91.48-25.14-91.48a39.81,39.81,0,0,1,1.61-33S327.6,186.57,327.6,186.6Z" style="fill:#37474f"></path><path d="M353.3,393.08c-6.69-.05-4.77-.14-11.46-.1-3.27,0-24.78.15-27.83.74a.07.07,0,0,0,0,.14c3.07.5,24.57,0,27.84-.12,6.69-.17,4.77-.2,11.45-.45C353.42,393.28,353.42,393.08,353.3,393.08Z" style="fill:#263238"></path><path d="M324.59,219.89a87.85,87.85,0,0,0-12.6,8.43c-.15.12,0,.37.17.26,4.27-2.67,8.64-5.28,12.76-8.19A.3.3,0,0,0,324.59,219.89Z" style="fill:#263238"></path><path d="M321.1,188.34c0-.15-.32-.15-.29,0a154.56,154.56,0,0,1,1.61,15.41c.15,2.39.28,15.7-4,15.39-.71-.06-1.16-.67-1.43-1.69a16.84,16.84,0,0,1-.08-4.08q.06-4.19-.22-8.37a75.45,75.45,0,0,0-2.56-15.38.13.13,0,0,0-.26.05A143.17,143.17,0,0,1,316,211.15c0,3.47-.9,8.83,2.72,8.8s4.7-8.93,4.78-11.34A78.76,78.76,0,0,0,321.1,188.34Z" style="fill:#263238"></path><path d="M318.63,219.49a21.1,21.1,0,0,0-.5,2.84,6,6,0,0,0,0,2.28.16.16,0,0,0,.29,0,7.66,7.66,0,0,0,.61-2.31c.19-.88.39-1.76.54-2.65A.46.46,0,0,0,318.63,219.49Z" style="fill:#263238"></path><path d="M308.06,377.21c-.13-1.29-.29-2.57-.46-3.85-.33-2.46-4.06-22.43-6-32.16-1.11-5.5-2.41-10.93-3.77-16.37-.1-.37-.59-.19-.53.18.83,5,1.63,9.95,2.57,14.9s6.23,30.37,6.73,33.13c.25,1.38.51,2.76.79,4.13s.66,2.71.87,4.09c0,.13.2.06.19-.06C308.23,379.88,308.2,378.53,308.06,377.21Z" style="fill:#263238"></path><path d="M340.8,323.06c-1.52-7.57-3.57-15.05-5.63-22.5-4.15-15-9-29.75-13.91-44.51q-2.11-6.37-4.22-12.76c-.7-2.12-4.14-13.59-4.57-14.68a.09.09,0,0,0-.18,0c1,3.91,2.34,9.61,3.48,13.47s2.36,7.62,3.55,11.42c2.33,7.48,4.7,14.94,7,22.44,4.47,14.81,8.92,29.63,12.55,44.68,1,4.21,2,8.42,3,12.66s1.72,8.49,2.61,12.72c0,.12.22.09.21,0C343.85,338.3,342.32,330.66,340.8,323.06Z" style="fill:#263238"></path><path d="M312.41,362.7c-2.51-14.46-5.52-28.83-8.86-43.12s-7.08-28.62-11.2-42.78-8.67-28.19-13.56-42.09a175,175,0,0,1-6.2-20c-1.51-6.75-2.27-14.05-.7-20.86a35,35,0,0,1,1.56-5.08c.05-.11-.12-.21-.17-.09-5.49,12.8-1.93,26.79,2.25,39.41,2.3,6.91,4.74,13.77,7,20.69q3.48,10.67,6.67,21.41c4.21,14.2,8.12,28.49,11.63,42.88s6.62,28.88,9.37,43.43,2.61,13.41,5,28.08c.3,1.91.54,3.83.79,5.75,0,.1.19.1.17,0C314.36,375.75,314.92,377.13,312.41,362.7Z" style="fill:#263238"></path><path d="M331.94,132.49a.43.43,0,0,1-.28.5l-1.74.37c-2.16-3.87-4.32-6.89-3.69-5.68a21.08,21.08,0,0,1,2,6l-3.44.67c-2.4-7-4.91-12.12-4.57-10.48,1.39,6.59,1.31,8.79,1.17,11.14-8.31,1.58-19.23,3.55-27.15,4.79-1.49-3.85-2.91-8.05-3-7.73-.76,2.41-.58,5.72-.25,8.24-2.52.38-4.55.64-5.79.73,0,0-1.07-3.27-1.31-4.36a23,23,0,0,1-.32-8.52,41.31,41.31,0,0,1,2.56-8.32s0-.05,0-.06,0,0,0,0a24.06,24.06,0,0,0,1.37-5.5s0,0,0,0a23,23,0,0,0,.08-4.09c-.33-5,1.83-9.63,6.27-11.6,7.57-9.48,16.82-7.28,20.36-1.34.34.58.69,1.25,1,2v0c1.31,2.72,2.63,6.3,3.78,9.05h0a0,0,0,0,0,0,0h0a25,25,0,0,0,1.51,3.15C323.53,116.28,329,118.47,331.94,132.49Z" style="fill:#263238"></path><path d="M292,100.2a9.41,9.41,0,0,0-4.3,8.26,24.09,24.09,0,0,1-.34,6.29,22.1,22.1,0,0,1-2.73,5.89A16.12,16.12,0,0,0,282,130a27.36,27.36,0,0,0,2.63,11s0,0,0,0a29,29,0,0,1-2.06-11.58c.1-4,2-6.76,3.79-10a16.48,16.48,0,0,0,2.19-8.43,19.73,19.73,0,0,1,.15-5.43,10.69,10.69,0,0,1,3.62-5A.21.21,0,0,0,292,100.2Z" style="fill:#263238"></path><path d="M326.46,116.24c-2.54-2.49-5.11-4.55-6.86-7.83-1.6-3-2.73-6.23-4.34-9.22a0,0,0,1,0-.07,0c2.59,5.34,3.74,10.94,8,15.12,2.33,2.28,4.63,4.37,6.37,7.25a27.77,27.77,0,0,1,3.48,9.83.09.09,0,1,0,.17,0A22.84,22.84,0,0,0,326.46,116.24Z" style="fill:#263238"></path><path d="M311.52,141.24c13.16,7.13,35.12,14.41,47.47,14.37,5.32,0,25.88-9.53,36.13-16.54,3.83-2.62-13.63-22.63-18.1-20.25-3,1.62-18.39,14.44-21.06,14.94-4.91.93-26.64-2-40.39-1.92C307.9,131.89,303.34,136.81,311.52,141.24Z" style="fill: rgb(255, 196, 192);"></path><path d="M335.18,131.6l1.76,24.91s-25.16-11-31.65-16.33c-7.29-6-2.63-8.41,6.29-9.36S335.18,131.6,335.18,131.6Z" style="fill:#6366F1"></path><path d="M330.74,132.8c-.21,3.2.53,12.89.63,14.49.06.85.43,4.21.48,5.05,0,.11.17.08.16,0-.09-1.61,0-3.23-.1-4.85s-.47-11.49-1.05-14.67A.06.06,0,0,0,330.74,132.8Z" style="fill:#263238"></path><path d="M336.94,156.51s-25.16-11-31.65-16.33c-3-2.44-4-4.28-3.49-5.68l34.08,7Z" style="opacity:0.1"></path><path d="M270.86,187.52l58,1-4.55-17.38A18.15,18.15,0,0,0,327,156c-1.39-5.11-8-12.78-12-17.65-9.87-11.85-18.43-6.49-21.17-3.44C283.31,146.5,270.86,187.52,270.86,187.52Z" style="fill:#6366F1"></path><path d="M308.82,170.08a48.91,48.91,0,0,1,7.46-.13c1.24.09,2.46.23,3.69.4.61.09,1.22.15,1.84.22a8.31,8.31,0,0,0,1.93,0c.05,0,.07.07,0,.09a15.34,15.34,0,0,1-1.8.29,15.1,15.1,0,0,1-1.78,0c-1.25-.08-2.5-.21-3.75-.3-2.53-.19-5.06-.37-7.59-.37A.1.1,0,0,1,308.82,170.08Z" style="fill:#263238"></path><path d="M303.18,173.34a56.13,56.13,0,0,1,6-1.4c1-.17,2-.28,3.06-.36.49-.05,1-.08,1.47-.1s1.08,0,1.62,0c.06,0,.07.09,0,.09-.5.05-1,.19-1.51.27l-1.52.23c-1,.16-2,.33-3,.48-2,.3-4,.61-6.07,1A.08.08,0,0,1,303.18,173.34Z" style="fill:#263238"></path><path d="M298.79,134.75c.36,1,6.09,7.06,10.76,6.26,1.52-.27.45-8.63.45-8.63l.07-.63.86-8.89-11-5.27-1.58-.68s-.07,2.45-.14,5.5c0,.14,0,.28,0,.43s0,.34,0,.5c0,.45,0,.92,0,1.38s0,.7,0,1.07,0,.73,0,1.1A57.56,57.56,0,0,0,298.79,134.75Z" style="fill: rgb(255, 196, 192);"></path><path d="M298.24,122.41a17.94,17.94,0,0,0,11.83,9.34l.86-8.89-11-5.27-1.58-.68S298.31,119.36,298.24,122.41Z" style="fill:#263238"></path><path d="M321.74,107.91c5,14.86-3.36,19.53-6.57,20.6-2.91,1-12.95,3.91-19.44-10.36s-1.15-21.29,5.39-23.87S316.75,93,321.74,107.91Z" style="fill: rgb(255, 196, 192);"></path><path d="M317.74,108a9.76,9.76,0,0,1-1.08,0,1.69,1.69,0,0,1-1.11-.16.55.55,0,0,1-.17-.66,1.38,1.38,0,0,1,1.23-.65A2,2,0,0,1,318,107,.6.6,0,0,1,317.74,108Z" style="fill:#263238"></path><path d="M307,110.44a8,8,0,0,0,1-.48,1.76,1.76,0,0,0,.9-.68.57.57,0,0,0-.17-.66,1.38,1.38,0,0,0-1.4,0,2.05,2.05,0,0,0-1.06,1A.59.59,0,0,0,307,110.44Z" style="fill:#263238"></path><path d="M310,112.78s-.07.07-.06.12c.33,1,.53,2.23-.3,2.84,0,0,0,.07,0,.05C310.79,115.31,310.51,113.69,310,112.78Z" style="fill:#263238"></path><path d="M308.82,112c-1.69.34-.88,3.69.68,3.37S310.23,111.68,308.82,112Z" style="fill:#263238"></path><path d="M308.2,112.31c-.25.26-.45.66-.8.78s-.79-.14-1.14-.41c0,0-.05,0,0,0,.14.65.55,1.25,1.26,1.18s1-.75,1-1.43C308.45,112.35,308.3,112.2,308.2,112.31Z" style="fill:#263238"></path><path d="M316.14,110.74s.09,0,.1.07c.21,1,.63,2.21,1.65,2.34a0,0,0,0,1,0,.06C316.71,113.31,316.17,111.76,316.14,110.74Z" style="fill:#263238"></path><path d="M316.81,109.44c1.64-.52,2.56,2.8,1,3.28S315.44,109.87,316.81,109.44Z" style="fill:#263238"></path><path d="M317.57,109.46c.31.11.65.35,1,.29s.54-.51.68-.92c0,0,0,0,.06,0,.19.63.17,1.35-.41,1.64s-1.08-.17-1.41-.76C317.4,109.62,317.44,109.42,317.57,109.46Z" style="fill:#263238"></path><path d="M312.58,121.4c.3.2.62.49,1,.44a2.7,2.7,0,0,0,1.08-.48,0,0,0,0,1,.06,0,1.43,1.43,0,0,1-1.22.82,1.14,1.14,0,0,1-1-.76C312.46,121.41,312.54,121.37,312.58,121.4Z" style="fill:#263238"></path><path d="M316,116.56s.6,1.49.79,2.22c0,.07-.15.14-.4.22,0,0,0,0,0,0a3.56,3.56,0,0,1-3.7-.44c-.07,0,0-.15.08-.12a5.42,5.42,0,0,0,3.4.1c0-.22-1.13-2.52-1-2.56a6.27,6.27,0,0,1,1.75,0c-1.18-3.14-2.85-6.07-4-9.21a.1.1,0,0,1,.18-.1,53.83,53.83,0,0,1,4.69,9.74C317.92,116.77,316.28,116.61,316,116.56Z" style="fill:#263238"></path><path d="M316.21,118.75a4.31,4.31,0,0,1-1.24,1.81,1.92,1.92,0,0,1-1.1.43c-.89,0-1.15-.7-1.2-1.38a4.55,4.55,0,0,1,.05-1.1A5.63,5.63,0,0,0,316.21,118.75Z" style="fill:#263238"></path><path d="M315,120.56a1.92,1.92,0,0,1-1.1.43c-.89,0-1.15-.7-1.2-1.38A2,2,0,0,1,315,120.56Z" style="fill:#ff9abb"></path><path d="M295.94,119a6.49,6.49,0,0,0,2.65-5.83,16.89,16.89,0,0,0,5.82-6.67c-.05.34-.39,2.78-.6,4,9.5-3.57,11.2-11.63,11.2-11.63a17.25,17.25,0,0,1,5.39,5.47s-1-6-4.81-9.52a9.86,9.86,0,0,0-9.67-2.42A14.1,14.1,0,0,0,293.1,99C287.94,107,295.94,119,295.94,119Z" style="fill:#263238"></path><path d="M311,107.55a18.59,18.59,0,0,1-4.72,2.74s0,0,0,0a15.82,15.82,0,0,0,6.44-5.64,15.06,15.06,0,0,0,1.59-3.34,10.19,10.19,0,0,0,.64-4c0-.1.15-.12.16,0a12,12,0,0,1-.1,4,10.88,10.88,0,0,1-1.6,3.64,13.22,13.22,0,0,1-2.41,2.6" style="fill:#263238"></path><path d="M298.48,117.09s-4.48-4-6.35-2.25,2.29,8,5.06,8.33a2.66,2.66,0,0,0,3.12-2.22Z" style="fill: rgb(255, 196, 192);"></path><path d="M293.37,116.61s0,.07,0,.07c1.95.3,3.29,1.72,4.35,3.27a1.46,1.46,0,0,0-2.22.12c0,.05,0,.11.07.09a1.61,1.61,0,0,1,1.88.13,8,8,0,0,1,1.18,1.21c.12.14.38,0,.28-.19l0,0C298.38,119,295.86,116.25,293.37,116.61Z" style="fill:#263238"></path><path d="M420.93,123.48l23.35,78.79a8.31,8.31,0,0,1-5.6,10.34l-125,37A8.31,8.31,0,0,1,303.39,244L280,165.25a7.74,7.74,0,0,1,5.22-9.62l126.06-37.37A7.75,7.75,0,0,1,420.93,123.48Z" style="fill:#6366F1"></path><path d="M420.93,123.48l23.35,78.79a8.31,8.31,0,0,1-5.6,10.34l-125,37A8.31,8.31,0,0,1,303.39,244L280,165.25a7.74,7.74,0,0,1,5.22-9.62l126.06-37.37A7.75,7.75,0,0,1,420.93,123.48Z" style="opacity:0.30000000000000004"></path><rect x="295.82" y="163.53" width="27.59" height="19.06" rx="4.2" transform="translate(-36.42 95.12) rotate(-16.51)" style="fill:#6366F1"></rect><path d="M303.07,203.08l-.9.95a.23.23,0,0,1-.12.09.27.27,0,0,1-.27-.07.26.26,0,0,1,0-.39l1.21-1.33a.28.28,0,0,1,.39,0,.34.34,0,0,1,.09.19l2.09,7a.27.27,0,0,1-.18.34.28.28,0,0,1-.35-.18Z" style="fill:#f8f8f8"></path><path d="M307.38,208.79l2.63-4.3a2,2,0,0,0-.69-2.83,2,2,0,0,0-1.64-.21,2.05,2.05,0,0,0-1.19.9l-.27.45a.28.28,0,0,1-.48-.28l.27-.46a2.65,2.65,0,0,1,1.51-1.15,2.54,2.54,0,0,1,2.08.28,2.59,2.59,0,0,1,1.16,1.48,2.64,2.64,0,0,1-.27,2.11l-2.25,3.68,3.63-1.07a.27.27,0,0,1,.34.19.28.28,0,0,1-.18.34l-4.28,1.27h0a.21.21,0,0,1-.22,0A.29.29,0,0,1,307.38,208.79Z" style="fill:#f8f8f8"></path><path d="M316.5,198.77l-1.38,2.63a2.69,2.69,0,0,1,2.83,1.93,2.72,2.72,0,0,1-3.9,3.16.28.28,0,0,1-.11-.39.27.27,0,0,1,.38-.11,2.15,2.15,0,0,0,1.62.16,2.17,2.17,0,0,0,1.29-1,2.2,2.2,0,0,0,.17-1.64,2.15,2.15,0,0,0-1-1.27,2.12,2.12,0,0,0-1.63-.17.28.28,0,0,1-.25,0h0a.3.3,0,0,1-.12-.4l1.33-2.52-2.94.87a.3.3,0,0,1-.36-.19.29.29,0,0,1,.2-.36l3.58-1.06a.29.29,0,0,1,.36.19.29.29,0,0,1,0,.13A.15.15,0,0,1,316.5,198.77Z" style="fill:#f8f8f8"></path><path d="M324.6,202.48l-4.15,1.23h0a.27.27,0,0,1-.18,0,.26.26,0,0,1-.15-.36l2.8-6.84h0a.28.28,0,0,1,.37-.15.32.32,0,0,1,.12.11l0,0v0l1.55,5.26.52-.15a.28.28,0,0,1,.35.18.29.29,0,0,1-.19.35l-.52.15.39,1.31a.28.28,0,0,1-.2.35.28.28,0,0,1-.34-.19Zm-.15-.53-1.33-4.49-2.3,5.57Z" style="fill:#f8f8f8"></path><path d="M334.46,200.45a.29.29,0,0,1,.28-.5,2.15,2.15,0,0,0,1.62.16,2.05,2.05,0,0,0,1.27-1,2.11,2.11,0,0,0,.18-1.62,2.17,2.17,0,0,0-1-1.29,2.16,2.16,0,0,0-2.9.87.27.27,0,0,1-.38.12.16.16,0,0,1-.09-.07h0l0,0a.11.11,0,0,1,0-.08s0,0,0-.06l-.54-3.2a.23.23,0,0,1,.05-.23.26.26,0,0,1,.15-.12l3.58-1.06a.27.27,0,0,1,.35.19.28.28,0,0,1-.19.36l-3.34,1,.4,2.36a2.67,2.67,0,0,1,1.2-.74,2.7,2.7,0,0,1,3.35,1.83,2.65,2.65,0,0,1-.21,2.07,2.73,2.73,0,0,1-3.68,1.09Z" style="fill:#f8f8f8"></path><path d="M340.22,193a3.25,3.25,0,0,1,2.19-2.46.28.28,0,0,1,.35.17.31.31,0,0,1-.18.37,2.73,2.73,0,0,0-1.83,2,5.33,5.33,0,0,0-.09,1.7,2.61,2.61,0,0,1,1.64-1.43,2.64,2.64,0,1,1-1.76,3.37c-.07-.16-.11-.32-.17-.5A6.58,6.58,0,0,1,340.22,193Zm.85,3.57a.52.52,0,0,0,.06.13s0,.06,0,.08a2.1,2.1,0,1,0,1.32-2.84,2.07,2.07,0,0,0-1.4,2.58Z" style="fill:#f8f8f8"></path><path d="M349,196.55l.85-7.57-3.71,1.1a.28.28,0,0,1-.15-.53l4.05-1.2a.33.33,0,0,1,.17,0,.37.37,0,0,1,.19.12.26.26,0,0,1,.05.09.19.19,0,0,1,0,.15l-.88,7.94a.3.3,0,0,1-.19.24.25.25,0,0,1-.12,0A.31.31,0,0,1,349,196.55Z" style="fill:#f8f8f8"></path><path d="M354.44,187a1.67,1.67,0,0,1,2.07,1.12,1.7,1.7,0,0,1-.27,1.49,2.59,2.59,0,1,1-1.9.56,1.69,1.69,0,0,1-1-1.11A1.66,1.66,0,0,1,354.44,187Zm2.12,7.15a2,2,0,1,0-2.54-1.38A2,2,0,0,0,356.56,194.15Zm-1.33-4.47a1.15,1.15,0,0,0,.76-1.4,1.12,1.12,0,0,0-1.39-.75,1.1,1.1,0,0,0-.75,1.38A1.13,1.13,0,0,0,355.23,189.68Z" style="fill:#f8f8f8"></path><path d="M368.08,183a2.63,2.63,0,0,1,3.18,1.49l0,.05c.07.2.15.42.22.65a6.74,6.74,0,0,1,.17,3.28,3.34,3.34,0,0,1-2.19,2.46h0a.27.27,0,0,1-.35-.17.28.28,0,0,1,.18-.36,2.73,2.73,0,0,0,1.82-2.06,4.78,4.78,0,0,0,.09-1.69,2.64,2.64,0,1,1-3.15-3.65Zm2.75,1.93a2.09,2.09,0,1,0-1.41,2.59A2.07,2.07,0,0,0,370.83,184.89Z" style="fill:#f8f8f8"></path><path d="M373.7,185.47a5.17,5.17,0,0,1-.06-2.91,2.49,2.49,0,0,1,1.58-1.71,2.46,2.46,0,0,1,2.26.58,5.42,5.42,0,0,1,1.59,5.36,2.26,2.26,0,0,1-3.84,1.14A5.11,5.11,0,0,1,373.7,185.47Zm.54-.16a4.59,4.59,0,0,0,1.35,2.19,1.94,1.94,0,0,0,1.74.48,1.92,1.92,0,0,0,1.2-1.35,4.84,4.84,0,0,0-1.41-4.76,1.7,1.7,0,0,0-2.94.87A4.53,4.53,0,0,0,374.24,185.31Z" style="fill:#f8f8f8"></path><path d="M381.66,179.78l-.9,1a.21.21,0,0,1-.12.08.29.29,0,0,1-.27-.06.26.26,0,0,1,0-.39l1.21-1.34a.29.29,0,0,1,.39,0,.37.37,0,0,1,.09.19l2.09,7a.27.27,0,0,1-.18.34.29.29,0,0,1-.35-.19Z" style="fill:#f8f8f8"></path><path d="M386,185.49l2.63-4.29a2.1,2.1,0,0,0,.22-1.67,2.06,2.06,0,0,0-2.55-1.37,2,2,0,0,0-1.19.9l-.27.45a.28.28,0,0,1-.48-.28l.27-.46a2.65,2.65,0,0,1,1.51-1.15,2.54,2.54,0,0,1,2.08.27,2.61,2.61,0,0,1,1.16,1.49,2.65,2.65,0,0,1-.27,2.1l-2.25,3.69,3.63-1.08a.27.27,0,0,1,.34.2.28.28,0,0,1-.18.34l-4.28,1.27h0a.28.28,0,0,1-.22,0A.3.3,0,0,1,386,185.49Z" style="fill:#f8f8f8"></path><path d="M401.66,173.53l-1.38,2.63a2.78,2.78,0,0,1,1.53.31,2.74,2.74,0,0,1,1.3,1.62,2.69,2.69,0,0,1-.22,2.07,2.76,2.76,0,0,1-1.62,1.31,2.68,2.68,0,0,1-2.06-.23.27.27,0,0,1-.11-.38.27.27,0,0,1,.38-.11,2.15,2.15,0,0,0,3.08-2.5,2.12,2.12,0,0,0-1-1.27,2.08,2.08,0,0,0-1.63-.17.31.31,0,0,1-.25-.05h0a.31.31,0,0,1-.12-.4l1.33-2.52-2.94.87a.28.28,0,0,1-.35-.2.27.27,0,0,1,.19-.35l3.58-1.06a.28.28,0,0,1,.36.19.29.29,0,0,1,0,.13A.19.19,0,0,1,401.66,173.53Z" style="fill:#f8f8f8"></path><path d="M409.77,177.24l-4.16,1.23h0a.27.27,0,0,1-.18,0,.26.26,0,0,1-.15-.36l2.81-6.84v0a.27.27,0,0,1,.37-.14.32.32,0,0,1,.12.11l0,0v0l1.56,5.26.51-.15a.27.27,0,0,1,.35.18.27.27,0,0,1-.19.34l-.52.16.39,1.31a.29.29,0,0,1-.19.35.3.3,0,0,1-.35-.19Zm-.16-.53-1.33-4.49-2.3,5.56Z" style="fill:#f8f8f8"></path><path d="M413.05,177.16a.29.29,0,0,1-.11-.39.29.29,0,0,1,.39-.12,2.15,2.15,0,0,0,1.62.17,2.16,2.16,0,0,0,1.45-2.66,2.15,2.15,0,0,0-1-1.28,2.16,2.16,0,0,0-2.9.87.27.27,0,0,1-.38.11.15.15,0,0,1-.09-.06h0l0,0a.25.25,0,0,1,0-.09.11.11,0,0,0,0-.06l-.54-3.2a.21.21,0,0,1,.05-.23.3.3,0,0,1,.15-.12l3.58-1.05a.27.27,0,0,1,.35.19.27.27,0,0,1-.19.35l-3.34,1,.4,2.37a2.59,2.59,0,0,1,1.2-.74,2.71,2.71,0,0,1,3.14,3.89,2.72,2.72,0,0,1-3.68,1.1Z" style="fill:#f8f8f8"></path><path d="M418.8,169.75a3.25,3.25,0,0,1,2.2-2.46.27.27,0,0,1,.34.17.29.29,0,0,1-.17.36,2.72,2.72,0,0,0-1.83,2.06,5.25,5.25,0,0,0-.09,1.69,2.59,2.59,0,0,1,1.64-1.42,2.64,2.64,0,1,1-1.76,3.37,4.2,4.2,0,0,1-.17-.5A6.7,6.7,0,0,1,418.8,169.75Zm.86,3.56a.45.45,0,0,0,.06.14.11.11,0,0,1,0,.08,2.12,2.12,0,1,0-.09-.26Z" style="fill:#f8f8f8"></path><rect x="309.03" y="212.86" width="69.79" height="3.43" transform="translate(-46.8 106.59) rotate(-16.51)" style="fill:#37474f"></rect><rect x="311.62" y="223.06" width="49.41" height="3.43" transform="translate(-50.01 104.84) rotate(-16.51)" style="fill:#37474f"></rect><rect x="351.27" y="145.69" width="34.81" height="3.43" transform="translate(-26.69 110.85) rotate(-16.51)" style="fill:#37474f"></rect><g id="freepik--u5zjqx--inject-41"><path d="M413.42,147.72l-.8-.45-.47-.25a8.89,8.89,0,0,0-3.56-12.1l.26-.45.44-.8v0h0l.05,0c.31.19.63.38.94.59a9.27,9.27,0,0,1,1.7,1.49,9.83,9.83,0,0,1,1.54,2.19c.19.38.35.78.52,1.17.05.13.32,1,.33,1.06.06.28.13.56.18.85a10.07,10.07,0,0,1,.12,2.39,11.16,11.16,0,0,1-.26,1.72,10.69,10.69,0,0,1-.59,1.73c-.13.29-.27.56-.4.84Z" style="fill:#fff"></path><path d="M407.21,137.49c.23-.43.46-.85.69-1.29a7.45,7.45,0,0,1,3,10.11l-1.29-.71a6,6,0,0,0-2.39-8.11Z" style="fill:#fff"></path><path d="M408.31,144.91l-1.27-.7a3.07,3.07,0,0,0,.25-2.34,3,3,0,0,0-1.48-1.82l.7-1.28A4.51,4.51,0,0,1,408.31,144.91Z" style="fill:#fff"></path></g><path d="M289.87,150.55c-2.14,16.19-7.59,49.69-.65,59.62,9.1,13,38.91,21.47,46.72,24,3.41,1.11,12.07-21.1,10.15-24.4s-34.48-16.29-36.6-18.22-4.61-27.65-7.55-41.2C298.22,133.24,291.69,136.84,289.87,150.55Z" style="fill: rgb(255, 196, 192);"></path><path d="M355.46,217.47c-1.24-1.35-.54-2,2.66-1.48s15.43,5.32,16.74.91-16-10.92-21.43-11.38-14.3.67-14.3.67C342.26,208.14,349.38,213.58,355.46,217.47Z" style="fill: rgb(255, 196, 192);"></path><path d="M327.42,230.62c9,5.15,19.89,12.12,31.58,12a5.8,5.8,0,0,0,3.6-1.19c5.25,0,6.84-2.44,6.84-2.44,4.89-1.46,6.17-4.21,6.17-4.21s6.16,0,6.75-3.75c.69-4.18-8.09-3.32-13.21-5.8-11.72-5.68-26.8-17-30-19Z" style="fill: rgb(255, 196, 192);"></path><path d="M352.68,227.89a83.19,83.19,0,0,0,10.55,4.39,82.81,82.81,0,0,0,12.29,2.37.1.1,0,0,1,0,.2,44.31,44.31,0,0,1-22.9-6.8C352.45,228,352.5,227.81,352.68,227.89Z" style="fill:#263238"></path><path d="M348.22,234.47c3.48,1.37,9.6,3.74,21.22,4.38,0,0,.05.07,0,.07a39.76,39.76,0,0,1-21.3-4.29C347.94,234.53,348,234.38,348.22,234.47Z" style="fill:#263238"></path><path d="M345.89,238.05c6,2.11,10.05,2.68,16.69,3.33,0,0,0,.07,0,.07-7.62.05-10.4-.79-16.79-3.21C345.57,238.16,345.66,238,345.89,238.05Z" style="fill:#263238"></path><path d="M307.63,169.1l-23.55,8.29s3.94-27.17,7.35-34.84c3.84-8.62,7.41-4.77,10.7,3.58S307.63,169.1,307.63,169.1Z" style="fill:#6366F1"></path><path d="M305.3,165.13c-3.14.65-12.29,3.93-13.8,4.45-.8.28-3.95,1.53-4.75,1.8-.1,0,0,.19.08.15,1.52-.51,3.11-.87,4.64-1.38s11-3.5,13.87-4.9C305.4,165.22,305.37,165.11,305.3,165.13Z" style="fill:#263238"></path><path d="M306.05,158.5c-.11-1.32-.23-2.63-.38-3.94,0,0-.05,0,0,0,0,1,.11,1.93.18,2.9-.45-1.88-.93-3.76-1.5-5.6,0,0-.06,0-.05,0,.44,2.89,1.05,5.76,1.56,8.64s1.06,5.65,1.61,8.47q-.76.41-1.53.78a.09.09,0,0,0,.06.16c.61-.18,1.21-.36,1.82-.52a.29.29,0,0,0,.24-.31C307.5,165.57,306.86,162,306.05,158.5Z" style="fill:#263238"></path><path d="M374.83,121.14c3.53-3.09,7.2-9.4,10.42-10.75a4,4,0,0,1,4.67,1s.71-3.8,3.83-4.54c1.6-.38,3.62,1.85,3.62,1.85s.7-3,3.52-3.5c2.24-.39,3.93,1.9,3.93,1.9s2-2.58,4.43-2.24c4.89.68,10.24,19.47,4.15,24.34-2.84,2.27-3.9-2.39-3.9-2.39s-.1,7.07-3.94,8.27-4.86-4.93-4.86-4.93-.15,6.85-4.26,7.69c-4.29.88-4.24-5.43-4.24-5.43s-1.65,5-4.94,4.91c-5.45-.13-1.41-9.83-3.56-13.68l-7.46-.34Z" style="fill: rgb(255, 196, 192);"></path><path d="M379.68,115.69c-3.59,2.64-10-.92-13.77,1.11-5.14,2.74,2,7.38,10.33,6.48l6.35-1.83Z" style="fill: rgb(255, 196, 192);"></path><path d="M405.14,107.4a0,0,0,1,1,.09,0A33.87,33.87,0,0,1,409.59,127c0,.22-.39.27-.41,0A69.66,69.66,0,0,0,405.14,107.4Z" style="fill:#263238"></path><path d="M397.38,108.58c0-.07.1-.12.14,0,3.33,6,5.16,14.25,3.41,21.77-.05.26-.37.43-.32.13C401.39,125.34,399.62,114.48,397.38,108.58Z" style="fill:#263238"></path><path d="M391.9,132.9c1.39-7.28.31-14.27-1.83-21.3,0-.09.1-.12.14,0,2,3.15,2.89,7.77,3.28,11.42a19.51,19.51,0,0,1-1.34,10C392.1,133.07,391.87,133.05,391.9,132.9Z" style="fill:#263238"></path></g><g id="freepik--Bag--inject-41"><polygon points="62.69 441.19 149.82 441.19 137.11 354.01 75.39 354.01 62.69 441.19" style="fill:#6366F1"></polygon><polygon points="75.39 354.01 85.07 441.19 62.68 441.19 75.39 354.01" style="fill:#263238;opacity:0.1"></polygon><path d="M119.28,360.11c0-.07-1.59-7.38-3.28-14.75-1.4-6.16-7.62-9-12.82-8.16-1.84.29-7.77,1.83-7,9.36.89,8.66,1.57,12.84,1.58,12.88l-3.67.59c0-.17-.7-4.32-1.6-13.11-.71-7,3.25-12.23,10.11-13.32s15.15,2.71,17,11c1.69,7.4,3.27,14.73,3.29,14.8Z" style="fill:#455a64"></path><path d="M83.89,440.53c-2-.9-3.93-1.91-5.87-2.91s-3.84-2.07-5.73-3.16l.5,0c-1.49,1.06-3,2.12-4.52,3.12s-3.06,2-4.65,2.95c1.38-1.21,2.81-2.35,4.25-3.48s2.9-2.23,4.38-3.32l.23-.17.27.15q2.85,1.59,5.64,3.29C80.25,438.13,82.1,439.27,83.89,440.53Z" style="fill:#fff"></path><path d="M72.52,434.08c0-5.58.1-11.15.22-16.71s.32-11.14.47-16.7.42-11.13.68-16.7l.42-8.34c.18-2.78.32-5.56.52-8.34,0,2.78,0,5.57-.06,8.35L74.61,384c-.12,5.56-.32,11.13-.47,16.7s-.42,11.13-.69,16.69S72.9,428.52,72.52,434.08Z" style="fill:#fff"></path><path d="M117.39,359.74a3.7,3.7,0,1,0,3.7-3.64A3.67,3.67,0,0,0,117.39,359.74Z" style="fill:#263238"></path><ellipse cx="96.2" cy="359.74" rx="3.7" ry="3.63" style="fill:#263238"></ellipse></g></svg>